<svg xmlns="http://www.w3.org/2000/svg" viewBox="0 0 500 500"><g id="freepik--Characters--inject-106"><path d="M259.21,160l24,24L304,156.62l12,17s-20.92,33.13-25.36,36.09-9.63,5.74-16.84,0-24.89-40.54-24.89-40.54l7-10.73Z" style="fill:#ffbf9d"></path><path d="M263.64,152.72a7.51,7.51,0,0,1,0-3.34,3.85,3.85,0,0,0-.73-2.71c-.45-.64-.18-1.45-.45-3.16s-2.62-2.35-2.62-2.35-.36-.82-.9-2.08-3.71-2.53-6.14-3.16-3.35.81-3.35.81l.09.54,1.18,1.54-4.88,1.89-3.25,17.8-1.63,3.5,12.36,5.55L256.1,163s6.5-6.24,7-7.33A3.8,3.8,0,0,0,263.64,152.72Z" style="fill:#ae7461"></path><path d="M250.19,137.35s-2-2.24-3.68-1.9-5,2.13-5.07,4.09,2.19,1.9,3.63,1.55l.74-.34,1.22.82,4.88-1.9Z" style="fill:#ffbf9d"></path><path d="M241.44,140.67s-3.31-.28-4.51.49a3.54,3.54,0,0,0-.65,5.38l5.56-1.15,8.17,0s.33-2.78,0-3.27S245,140.54,241.44,140.67Z" style="fill:#ffbf9d"></path><path d="M235.9,146.64a3.44,3.44,0,0,0-1.54,3.16,3.59,3.59,0,0,0,2.19,2.79l5.86-2.55,13,.24s2-2.5-.56-3.64-9-1.23-11.72-1.24A35.88,35.88,0,0,0,235.9,146.64Z" style="fill:#ffbf9d"></path><path d="M236.55,152.59A3.1,3.1,0,0,0,236,156c.93,1.81,1.75,1.81,1.75,1.81s0,2.28.7,3a12.66,12.66,0,0,0,1.81,1.52l4.38-3.44s6.18-.58,7-1.43a7.62,7.62,0,0,0,1.34-2.25s2.24.35,3.17-.64,1-3.71-1.18-4.24L242.41,150Z" style="fill:#ffbf9d"></path><path d="M207.08,164.2l14.48,15.58L240.92,162l15.89.33s-24.5,41.3-30.15,44.61-9.93,1.8-16.27-2.06S183,174.27,183,174.27Z" style="fill:#ae7461"></path><path d="M252.8,155.53c.94-.67-2.47-.95-6.08-.75a58.12,58.12,0,0,0-6.63,1.14,5.94,5.94,0,0,1,1.84-.77,20.54,20.54,0,0,1,4.75-.89,21,21,0,0,1,4.83.21l.82.15a.93.93,0,0,1,.6.37.47.47,0,0,1,0,.46C252.87,155.54,252.81,155.54,252.8,155.53Z" style="fill:#ff9a6c"></path><path d="M255.4,150.46a8.94,8.94,0,0,1-2.3.06l-5.51-.26a29.58,29.58,0,0,0-5.46.25,17.64,17.64,0,0,1-2.26.35,6.8,6.8,0,0,1,2.19-.71,22.52,22.52,0,0,1,5.55-.41c2.17.07,4.11.28,5.51.41A11.59,11.59,0,0,1,255.4,150.46Z" style="fill:#ff9a6c"></path><path d="M250.15,145.54c0,.17-3,0-6.67.19s-6.61.78-6.64.62a6.92,6.92,0,0,1,1.9-.53,33.33,33.33,0,0,1,4.71-.61,38.11,38.11,0,0,1,4.75,0A6.76,6.76,0,0,1,250.15,145.54Z" style="fill:#ff9a6c"></path><path d="M250,142a31.25,31.25,0,0,0-5.64-.95c-3.16-.13-5.76.07-5.76-.11a5.45,5.45,0,0,1,1.68-.29,28.35,28.35,0,0,1,4.11-.12,15.3,15.3,0,0,1,4.07.72A4.41,4.41,0,0,1,250,142Z" style="fill:#ff9a6c"></path><path d="M254.81,138.54a15,15,0,0,1-3.28,1.46,15.87,15.87,0,0,1-3.39,1.17,10.34,10.34,0,0,1,3.2-1.65A10.88,10.88,0,0,1,254.81,138.54Z" style="fill:#6f4439"></path><path d="M284.45,197a61.12,61.12,0,0,0-.44-7.1,61.17,61.17,0,0,0-1.8-6.89,6.7,6.7,0,0,1,1,1.88,23.59,23.59,0,0,1,1.35,4.92,22.93,22.93,0,0,1,.25,5.1A6.63,6.63,0,0,1,284.45,197Z" style="fill:#ff9a6c"></path><path d="M220.88,191.5c-.15,0,.6-2.77.8-6.22s-.2-6.25,0-6.27a21.26,21.26,0,0,1-.76,12.49Z" style="fill:#6f4439"></path><path d="M322.76,108c.09-5.28,1.16-16.13,2.24-25.95a20.38,20.38,0,0,1,20.84-18.14l1.05,0c11.35,1,16.85,11.18,15.54,22.5l-1,44.64-8.1,13-19.05-4.31,1.35-18.84S322.58,118.89,322.76,108Z" style="fill:#ffbf9d"></path><path d="M333.45,120.9a25.45,25.45,0,0,0,14.36-3.63s-3.59,7.76-14.47,6.46Z" style="fill:#ff9a6c"></path><path d="M327.24,91.91a1.57,1.57,0,0,0,1.46,1.62,1.5,1.5,0,0,0,1.65-1.36,1.57,1.57,0,0,0-1.46-1.62A1.49,1.49,0,0,0,327.24,91.91Z" style="fill:#263238"></path><path d="M327,86.85c.19.2,1.4-.64,3.08-.58s2.88.93,3.07.73-.09-.47-.62-.87a4.23,4.23,0,0,0-2.45-.84,4.1,4.1,0,0,0-2.45.72C327.14,86.39,327,86.75,327,86.85Z" style="fill:#263238"></path><path d="M342.21,92.21a1.56,1.56,0,0,0,1.46,1.62,1.49,1.49,0,0,0,1.65-1.36,1.57,1.57,0,0,0-1.46-1.62A1.49,1.49,0,0,0,342.21,92.21Z" style="fill:#263238"></path><path d="M343.05,86.86c.16.23,1.45-.48,3.12-.24s2.77,1.23,3,1,0-.46-.52-.93a4.34,4.34,0,0,0-2.35-1.09,4.09,4.09,0,0,0-2.51.44C343.19,86.41,343,86.76,343.05,86.86Z" style="fill:#263238"></path><path d="M337.23,100.49a11.82,11.82,0,0,0-2.71-.57c-.43-.06-.83-.15-.9-.45a2.23,2.23,0,0,1,.33-1.26c.43-1,.88-2.1,1.36-3.23,1.9-4.6,3.28-8.38,3.1-8.46s-1.88,3.6-3.77,8.19c-.46,1.14-.9,2.22-1.31,3.25a2.48,2.48,0,0,0-.27,1.68,1.09,1.09,0,0,0,.68.65,3.07,3.07,0,0,0,.73.12A10.54,10.54,0,0,0,337.23,100.49Z" style="fill:#263238"></path><path d="M343.77,79.61c.15.46,1.84.29,3.8.59s3.54.87,3.81.47c.13-.19-.14-.63-.77-1.09a6.71,6.71,0,0,0-5.8-.81C344.08,79,343.71,79.39,343.77,79.61Z" style="fill:#263238"></path><path d="M327.51,80.36c.28.39,1.45,0,2.84,0s2.56.33,2.85-.06c.12-.19-.05-.58-.56-1a4,4,0,0,0-2.29-.69,3.94,3.94,0,0,0-2.29.7C327.55,79.78,327.38,80.17,327.51,80.36Z" style="fill:#263238"></path><path d="M361.3,94.48c.19-.08,7.58-2,7.12,5.46s-7.85,5.47-7.85,5.25S361.3,94.48,361.3,94.48Z" style="fill:#ffbf9d"></path><path d="M363,102.5s.12.1.34.22a1.27,1.27,0,0,0,1,.07A3.23,3.23,0,0,0,366,100a4.26,4.26,0,0,0-.25-1.88,1.48,1.48,0,0,0-.92-1.06.66.66,0,0,0-.79.31c-.11.2-.07.35-.11.36s-.15-.13-.07-.44a.84.84,0,0,1,.32-.45,1,1,0,0,1,.73-.14,1.82,1.82,0,0,1,1.29,1.24,4.37,4.37,0,0,1,.32,2.1c-.14,1.51-1,2.87-2.09,3.11a1.38,1.38,0,0,1-1.18-.27C363,102.68,363,102.51,363,102.5Z" style="fill:#ff9a6c"></path><path d="M324.15,69.23a3.82,3.82,0,0,1,3-3c-.07-.23,1.53-1,2.78-1.87s1.52-3,2.65-1.93a3.5,3.5,0,0,1,4.85-3c0-1.32,1.91-1.76,3.19-2.1s1.77-.52,2.37.65a5.09,5.09,0,0,1,7.93-.41,6.49,6.49,0,0,1,7.78,3.71,6.15,6.15,0,0,1,5.3,4.39c1.57.18,1.94,1.4,2.57,2.84s1.5,3,.57,4.31a3.34,3.34,0,0,1,.53,5.29,3.35,3.35,0,0,1,1.07.91,3.49,3.49,0,0,1,.87,4.89,3.46,3.46,0,0,1-2.33,6.16c1.2,1.75-.36,4.1-1.27,4.6,0,0-3.05-1.3-3.57,1,0,0,0,0,0,0a1.39,1.39,0,0,1-1.89,1.41,4.92,4.92,0,0,1-1.87-2.19,10.89,10.89,0,0,1-1.48-3A2.61,2.61,0,0,1,358.27,89,3.91,3.91,0,0,1,356,85.83a11.83,11.83,0,0,1,.35-4l1.23-5.89a7.46,7.46,0,0,1-6.32-4.42,4.27,4.27,0,0,1-6.16-1.7A5.56,5.56,0,0,1,338.22,73c.25,1.55-2.57,2.91-4.1,3.28a5.53,5.53,0,0,1-3.41-.77s-2.66,1.47-4.07.86-3.24-2.46-2.27-3.91A6.91,6.91,0,0,1,324.15,69.23Z" style="fill:#263238"></path><path d="M338.38,59.29a2.59,2.59,0,0,1,.85-.46,1.56,1.56,0,0,1,1.09.09A1.61,1.61,0,0,1,341.2,60l.09.42.23-.37a2.74,2.74,0,0,1,2.34-1.23,2.65,2.65,0,0,1,2.42,1.95l.12.49.33-.39a3.3,3.3,0,0,1,2.62-1.17,3.16,3.16,0,0,1,2.6,1.56,3,3,0,0,1,.44,1.22l0,.3.3-.06a3.2,3.2,0,0,1,3.52,1.77,3.26,3.26,0,0,1-.63,3.47l-.3.3.41.08a3.53,3.53,0,0,1,2.2,1.5,3.43,3.43,0,0,1,.57,2,5.36,5.36,0,0,1-.44,1.8,1.36,1.36,0,0,0,.3-.41,3.74,3.74,0,0,0,.4-1.38,3.65,3.65,0,0,0-.52-2.21,3.88,3.88,0,0,0-2.41-1.74l.11.38a3.62,3.62,0,0,0-3.33-6.11l.34.24a3.79,3.79,0,0,0-3.59-3.26,3.81,3.81,0,0,0-3,1.39l.46.1a3.11,3.11,0,0,0-2.91-2.27,3.06,3.06,0,0,0-2.65,1.5l.32.05a1.86,1.86,0,0,0-1.11-1.28,1.74,1.74,0,0,0-1.25,0,1.78,1.78,0,0,0-.66.42C338.4,59.19,338.37,59.28,338.38,59.29Z" style="fill:#455a64"></path><path d="M323.07,102a2.35,2.35,0,0,1,3.45,1.14,2.92,2.92,0,0,1,5.17.9,2.39,2.39,0,0,1,4-.68,1.87,1.87,0,0,1,2-.81,1.85,1.85,0,0,1,3-1.64,3,3,0,0,1,4.44-.74,1.67,1.67,0,0,1,3.22.12,2.7,2.7,0,0,1,3.12-.81,1.81,1.81,0,0,1,2.24-1.66c-.26-.92,1.1-1.33,1.79-2,.31-.29.51-.7.84-1s.92-.33,1.14,0a1.54,1.54,0,0,1,2.9-1,4.48,4.48,0,0,1,.25,1.32c.21,1.43,1,3.13,0,4.14-.18.18-.42.32-.5.57-.13.41.28.81.31,1.24s-.43.89-.64,1.36a4.52,4.52,0,0,0,0,2.22c.05.75-.37,1.7-1.12,1.62a2.63,2.63,0,0,1-.83,3.26,2.56,2.56,0,0,1-1.5,3.37,1.33,1.33,0,0,1,.1,1.74,3.89,3.89,0,0,1-1.54,1.1,1.1,1.1,0,0,1,.27,1.54,2.48,2.48,0,0,1-1.47.89,1.1,1.1,0,0,0-.65.35c-.27.39.09.91,0,1.38-.12.71-1.12.92-1.42,1.57s.08,1.41-.39,1.85c-.3.28-.78.23-1.17.37-.7.24-1,1-1.46,1.62a6.24,6.24,0,0,1-3.63,2c-.69.18-1.38.33-2.08.46-1.4.26-2.81.43-4.23.6-.7.09-1.56.1-1.93-.5a2.44,2.44,0,0,1-3.87-.46,6,6,0,0,1-3.78-.72l-1.24-.54c-1.23-.54-2.6-1.23-3-2.52a2.72,2.72,0,0,1-1.95-3.72c-.56.16-1.1-.41-1.19-1a5.18,5.18,0,0,1,.22-1.73c.43-2.34-.82-4.72-.49-7.08.22-1.65,1.21-3.28.73-4.88a3.16,3.16,0,0,1-.23-1c0-.34.34-.69.67-.59a1.53,1.53,0,0,1,1.54-2" style="fill:#263238"></path><path d="M342.78,102.17c-.27,0-.33,1.8-1.92,3s-3.54,1-3.56,1.25c0,.11.43.36,1.25.41a4.52,4.52,0,0,0,3-.94,4,4,0,0,0,1.5-2.56C343.1,102.62,342.91,102.17,342.78,102.17Z" style="fill:#fff"></path><path d="M352.8,114.64a16.16,16.16,0,0,0,.7-3.86,16,16,0,0,0-.54-3.89,2.9,2.9,0,0,1,.46,1.08,9.07,9.07,0,0,1,.38,2.81,9.19,9.19,0,0,1-.5,2.8A3.34,3.34,0,0,1,352.8,114.64Z" style="fill:#455a64"></path><path d="M354.52,112a8.37,8.37,0,0,0,.41-.82,5.32,5.32,0,0,0,.19-2.21c-.14-1.77-.63-3.14-.54-3.16a7.38,7.38,0,0,1,.83,3.14,4.74,4.74,0,0,1-.28,2.3C354.87,111.81,354.53,112,354.52,112Z" style="fill:#455a64"></path><path d="M356.35,110.49a10.59,10.59,0,0,0,.79-3.25,10.83,10.83,0,0,0-.51-3.31,2.31,2.31,0,0,1,.46.9,6.81,6.81,0,0,1,.35,2.42,6.56,6.56,0,0,1-.56,2.38A2.38,2.38,0,0,1,356.35,110.49Z" style="fill:#455a64"></path><path d="M325.94,121.66a2,2,0,0,1-1-.67,6,6,0,0,1-1.3-2.67,9.23,9.23,0,0,1-.25-3,3.61,3.61,0,0,1,.24-1.2,14.8,14.8,0,0,0,.3,4.09,6.68,6.68,0,0,0,1.17,2.61A9.18,9.18,0,0,0,325.94,121.66Z" style="fill:#455a64"></path><path d="M327.54,121.26a2.14,2.14,0,0,1-.84-.59,5.88,5.88,0,0,1-1.78-4.52,2.23,2.23,0,0,1,.21-1,6.77,6.77,0,0,1,0,1,6.71,6.71,0,0,0,.46,2.34,6.89,6.89,0,0,0,1.25,2C327.26,121,327.57,121.22,327.54,121.26Z" style="fill:#455a64"></path><path d="M324.75,75.44a14.31,14.31,0,0,1,7.38-5.35c9-2.68,21.73-3.7,35.12,9.5l1.95.89a32.3,32.3,0,0,0-.28-7.83c-.46-2.22-4.51-15.18-19-16.54C349.93,56.11,327.81,52.5,324.75,75.44Z" style="fill:#455a64"></path><g style="opacity:0.30000000000000004"><path d="M324.75,75.44a14.31,14.31,0,0,1,7.38-5.35c9-2.68,21.73-3.7,35.12,9.5l1.95.89a32.3,32.3,0,0,0-.28-7.83c-.46-2.22-4.51-15.18-19-16.54C349.93,56.11,327.81,52.5,324.75,75.44Z"></path></g><path d="M367.25,79.59c-5.5-6-12.57-9.48-20-12.24s-19.17-4.59-27.09-5a16.62,16.62,0,0,0-7.06.69c-2.21.87-4.15,2.87-4.25,5.25-.13,3,5.79,6.31,8.51,7.54s8.25,3.39,8.25,3.39,1.49-6.76,6.83-8.68C343.53,66.53,367.66,79.82,367.25,79.59Z" style="fill:#455a64"></path><path d="M324.08,71.06a4.26,4.26,0,0,1,4.59-2.66,1.62,1.62,0,0,1,0-1.94,3,3,0,0,1,1.78-1,5.4,5.4,0,0,1,6,3.12,5.18,5.18,0,0,1,4.85-1.32,4,4,0,0,1,3.32,3.46,3.26,3.26,0,0,1-1.95,3c-1.23.72-3.15.21-4.4-.48a4.52,4.52,0,0,1-7.16,1.91,4.13,4.13,0,0,1-7.05-4Z" style="fill:#263238"></path><path d="M316.44,432.79l.83,22.14s-22.22,8.29-22.47,12.39l43-.07.12-34.56Z" style="fill:#455a64"></path><path d="M330.56,453a1.77,1.77,0,0,1,1.22,2,1.69,1.69,0,0,1-2,1.22,1.84,1.84,0,0,1-1.28-2.13,1.74,1.74,0,0,1,2.19-1" style="fill:#e0e0e0"></path><path d="M337.79,467.25l-.12-3.49-41.18,1.38s-1.91.84-1.69,2.18Z" style="fill:#263238"></path><path d="M316.57,454.71c0,.21,1.06.31,2.1,1s1.58,1.55,1.77,1.47-.12-1.29-1.38-2.09S316.53,454.52,316.57,454.71Z" style="fill:#fff"></path><path d="M312.07,456.59c-.05.2.86.56,1.58,1.44s.92,1.83,1.13,1.82.34-1.2-.57-2.28S312.07,456.39,312.07,456.59Z" style="fill:#fff"></path><path d="M309.52,462c.19,0,.48-1-.06-2.16s-1.53-1.6-1.61-1.42.52.78.94,1.73S309.31,462,309.52,462Z" style="fill:#fff"></path><path d="M316.94,449.65c.09.19,1.05-.1,2.24,0s2.11.46,2.22.28-.78-.93-2.18-1S316.84,449.48,316.94,449.65Z" style="fill:#fff"></path><path d="M368,434.16l1.2,26.78L364,482.4a2.76,2.76,0,0,0,2.21,3.35h0a2.73,2.73,0,0,0,2.4-.76c4-4,18.27-19,18.33-20.47.09-2.28.75-28.66.75-28.66Z" style="fill:#455a64"></path><path d="M366.25,485.75l20.83-23.37,0,1.14a4.29,4.29,0,0,1-.92,2.7c-1.66,2-6.36,7.56-17.45,18.77a2.74,2.74,0,0,1-2.48.76Z" style="fill:#263238"></path><g style="opacity:0.6000000000000001"><path d="M381.39,453.86A1.66,1.66,0,0,0,381,456a1.6,1.6,0,0,0,2.16.42,1.76,1.76,0,0,0,.42-2.31,1.64,1.64,0,0,0-2.29-.19" style="fill:#fff"></path></g><path d="M372.13,473.9a8.5,8.5,0,0,0-2.4-2,8.19,8.19,0,0,0-3.1-.52c0-.07.31-.28.94-.39a4.42,4.42,0,0,1,4.25,2C372.14,473.49,372.19,473.88,372.13,473.9Z" style="fill:#fff"></path><path d="M370.29,477.53a22.86,22.86,0,0,0-2.39-1.1,25.86,25.86,0,0,0-2.63-.28,3.06,3.06,0,0,1,2.78-.28C369.64,476.29,370.43,477.46,370.29,477.53Z" style="fill:#fff"></path><path d="M375.58,469.23a27.11,27.11,0,0,0-3.59-2c-2.11-.8-4-.66-4-.84a7.53,7.53,0,0,1,7.58,2.79Z" style="fill:#fff"></path><path d="M375.9,461.06c-.07.16-1.57-.43-3.49-.46s-3.45.47-3.51.31a6.77,6.77,0,0,1,7,.15Z" style="fill:#fff"></path><path d="M375.75,453.18a13.66,13.66,0,0,0-3.63-.56,13.11,13.11,0,0,0-3.53,1c0-.06.24-.4.85-.77a6,6,0,0,1,5.37-.3C375.46,452.82,375.78,453.12,375.75,453.18Z" style="fill:#fff"></path><path d="M372.14,451.12a2.46,2.46,0,0,1-.06-1,7.12,7.12,0,0,1,.75-2.68,3.16,3.16,0,0,1,1.31-1.52,1.12,1.12,0,0,1,1.25.22,1.83,1.83,0,0,1,.45,1.2,3.91,3.91,0,0,1-3.33,3.67,4.5,4.5,0,0,1-4.47-2.26,1.54,1.54,0,0,1-.1-1.3,1.09,1.09,0,0,1,1.12-.6,3.78,3.78,0,0,1,1.78.88,7.8,7.8,0,0,1,1.88,2,2.53,2.53,0,0,1,.43.91,12.5,12.5,0,0,0-2.55-2.62,3.63,3.63,0,0,0-1.58-.73.57.57,0,0,0-.61.32,1,1,0,0,0,.12.85,4,4,0,0,0,3.9,1.92,3.37,3.37,0,0,0,2.86-3.08,1.28,1.28,0,0,0-.28-.85.59.59,0,0,0-.68-.13,2.75,2.75,0,0,0-1.13,1.27A10.34,10.34,0,0,0,372.14,451.12Z" style="fill:#fff"></path><path d="M303.21,247.57A95.19,95.19,0,0,0,300,275.45c.2,6,13.29,171.26,13.29,171.26l27.08,1.15L339.26,293l2.2.58s12,66.54,12.74,77.27c.68,9.63,10.19,79.86,10.19,79.86l24.67-.68-3.92-90.51-5.45-88.84-2.37-25.9Z" style="fill:#263238"></path><path d="M344.2,277.4A5.06,5.06,0,0,1,343,278a12.78,12.78,0,0,1-3.4,1,7.12,7.12,0,0,1-2.5-.09,5.23,5.23,0,0,1-2.55-1.36,6.29,6.29,0,0,1-1.47-2.84c-.27-1.06-.41-2.17-.58-3.29-.68-4.49-1.09-8.59-1.31-11.56-.1-1.49-.17-2.69-.19-3.52a5.23,5.23,0,0,1,0-1.3,5.5,5.5,0,0,1,.2,1.28c.1,1,.23,2.12.38,3.5.32,3,.79,7,1.46,11.52.35,2.22.55,4.47,1.87,5.84a5.63,5.63,0,0,0,4.62,1.41,15.37,15.37,0,0,0,3.37-.83A5.56,5.56,0,0,1,344.2,277.4Z" style="fill:#455a64"></path><path d="M336.94,256.09s.18-.14.56-.14a2.36,2.36,0,0,1,1.5.55,2.71,2.71,0,0,1,1.05,2.14,2.69,2.69,0,0,1-4.65,1.52,2.7,2.7,0,0,1-.41-2.35,2.4,2.4,0,0,1,.88-1.33c.31-.22.53-.24.53-.22a3.11,3.11,0,0,0-1,1.64,2.37,2.37,0,0,0,.44,1.93,2.2,2.2,0,0,0,3.7-1.22,2.34,2.34,0,0,0-.79-1.8A3,3,0,0,0,336.94,256.09Z" style="fill:#455a64"></path><path d="M379.38,269.06a3,3,0,0,1-.92.1,17,17,0,0,1-2.55-.08A24.55,24.55,0,0,1,361,262a16.35,16.35,0,0,1-1.68-1.91,3.39,3.39,0,0,1-.51-.78c.08-.07.91,1,2.47,2.4a27.72,27.72,0,0,0,6.82,4.59,28.12,28.12,0,0,0,7.88,2.35C378.06,269,379.38,269,379.38,269.06Z" style="fill:#455a64"></path><path d="M314,255.61a11.45,11.45,0,0,1-1.52,2.71,31.16,31.16,0,0,1-5,5.62,30.65,30.65,0,0,1-6.15,4.28,11.56,11.56,0,0,1-2.85,1.21c0-.08,1-.59,2.65-1.56a38.43,38.43,0,0,0,6-4.35,39.3,39.3,0,0,0,5-5.44C313.29,256.57,313.92,255.57,314,255.61Z" style="fill:#455a64"></path><path d="M178.86,76.45a5.12,5.12,0,0,0,1.94-10A5.32,5.32,0,0,0,176,57.59a6.37,6.37,0,0,0-9.72-5,7.16,7.16,0,0,0-8.82,0,5.09,5.09,0,0,0-4.3,8.74" style="fill:#263238"></path><path d="M179.62,77.15a21.71,21.71,0,0,0-22.06-19.49l-1.13,0c-12.1,1-18,11.79-16.73,23.86l1.09,43.21h0l20.81,22.48,8.78-14.37-.09-14.34s11.6-2.06,11.5-13.71C181.74,99.19,180.69,87.61,179.62,77.15Z" style="fill:#ae7461"></path><path d="M170.38,118.51A28.3,28.3,0,0,1,155,114.37s3.59,8.53,15.19,7.23Z" style="fill:#6f4439"></path><path d="M176.79,87.8a1.67,1.67,0,0,1-1.57,1.72,1.6,1.6,0,0,1-1.75-1.47A1.67,1.67,0,0,1,175,86.34,1.59,1.59,0,0,1,176.79,87.8Z" style="fill:#263238"></path><path d="M177.23,82.9c-.2.22-1.48-.69-3.27-.64s-3.08,1-3.28.75.11-.49.67-.92a4.55,4.55,0,0,1,2.62-.87,4.35,4.35,0,0,1,2.61.78C177.14,82.41,177.33,82.8,177.23,82.9Z" style="fill:#263238"></path><path d="M160.5,88.49a1.67,1.67,0,0,1-1.57,1.71,1.6,1.6,0,0,1-1.75-1.46A1.68,1.68,0,0,1,158.75,87,1.6,1.6,0,0,1,160.5,88.49Z" style="fill:#263238"></path><path d="M159.65,83.61c-.2.22-1.48-.68-3.27-.64s-3.08,1-3.28.75.1-.49.67-.92a4.59,4.59,0,0,1,2.62-.87,4.38,4.38,0,0,1,2.61.78C159.55,83.12,159.75,83.51,159.65,83.61Z" style="fill:#263238"></path><path d="M166.43,96.74a12.28,12.28,0,0,1,2.9-.58c.45-.06.88-.16.95-.47a2.33,2.33,0,0,0-.33-1.35c-.45-1.1-.93-2.25-1.43-3.45-2-4.92-3.43-9-3.23-9s2,3.84,4,8.76c.48,1.21.94,2.36,1.37,3.47a2.6,2.6,0,0,1,.28,1.79,1.15,1.15,0,0,1-.74.68,3,3,0,0,1-.77.13A11.91,11.91,0,0,1,166.43,96.74Z" style="fill:#263238"></path><path d="M160.06,77.51c-.22.46-1.77,0-3.66,0s-3.47.32-3.65-.14c-.08-.23.24-.64.92-1a5.65,5.65,0,0,1,2.82-.66,5.57,5.57,0,0,1,2.75.78C159.88,76.86,160.16,77.29,160.06,77.51Z" style="fill:#263238"></path><path d="M177.32,76.56c-.37.41-1.86,0-3.64,0s-3.27.35-3.62-.07c-.16-.21.07-.62.72-1a5.85,5.85,0,0,1,2.93-.73,5.79,5.79,0,0,1,2.92.76C177.26,75.94,177.48,76.36,177.32,76.56Z" style="fill:#263238"></path><path d="M141.81,92.83a3.16,3.16,0,0,0-3.48-3c-2.16.25-4.55,1.54-4.31,6,.42,8,8.32,5.89,8.32,5.66S142,96.16,141.81,92.83Z" style="fill:#ae7461"></path><path d="M140.45,98.64s-.13.11-.36.23a1.4,1.4,0,0,1-1,.07c-.85-.26-1.63-1.56-1.75-3a4.63,4.63,0,0,1,.28-2,1.6,1.6,0,0,1,1-1.12.7.7,0,0,1,.84.33c.12.22.08.38.12.39s.16-.14.08-.47a.86.86,0,0,0-.34-.48,1.06,1.06,0,0,0-.78-.16,2,2,0,0,0-1.38,1.31,4.69,4.69,0,0,0-.36,2.24c.14,1.61,1,3.06,2.21,3.33a1.47,1.47,0,0,0,1.25-.28C140.45,98.83,140.48,98.65,140.45,98.64Z" style="fill:#6f4439"></path><path d="M172.64,60.73a2.29,2.29,0,0,0-.29-.56,5.14,5.14,0,0,0-4-2.18,19.78,19.78,0,0,0-2.82-1.11,6.94,6.94,0,0,0-11.78-.24c-.32,0-.65.11-1,.18a7.08,7.08,0,0,0-10.7,3.28,5.14,5.14,0,0,0-5.64,7.6,4.91,4.91,0,0,0-2.6,3.94,2.84,2.84,0,0,0,2.95,2.83,106.21,106.21,0,0,0,.59,12.26c.2,2.79,3.79,4.37,4.07,6.26,1.45,9.63,4.49,4.22,5.28-15.8l.6-.52c.41-.39.5-.87.85-1.3s1.23-.38,1.9-.32a5.11,5.11,0,0,0,5.2-3.76,2.13,2.13,0,0,0,2.86.21,11.45,11.45,0,0,0,2.12-2.37,3.28,3.28,0,0,1,2.7-1.42,8.23,8.23,0,0,0,1.74.34c1.05-.12,1.53-1.35,1.67-2.39a4.82,4.82,0,0,1,.75-2.52,5.81,5.81,0,0,1,2-.62c.4,0,.8.11,1.19.16a3.46,3.46,0,0,0,.56,0,4.73,4.73,0,0,1,.73.28c3.55,1.62,6.78,8.85,6.78,8.85C178.53,67.2,175.93,63.41,172.64,60.73Z" style="fill:#263238"></path><path d="M135.41,68.14s0,0,.07-.12.13-.18.25-.31a4.15,4.15,0,0,1,1.22-.93,5.12,5.12,0,0,1,2.35-.56,4.61,4.61,0,0,1,3,1l-.22.07a6.29,6.29,0,0,1,3.21-4,7.93,7.93,0,0,1,2.84-.94,9.61,9.61,0,0,1,3.15.16,15.82,15.82,0,0,1,5.38,2.39l-.23.08a7.15,7.15,0,0,1,3.51-3.85,6.79,6.79,0,0,1,4.08-.58,6.88,6.88,0,0,1,2.53,1,6.55,6.55,0,0,1,.58.42q.19.16.18.18s-.28-.2-.82-.51a7.12,7.12,0,0,0-2.5-.85,6.64,6.64,0,0,0-3.93.62,6.93,6.93,0,0,0-3.34,3.71l-.06.19-.17-.11a15.84,15.84,0,0,0-5.28-2.33,9.49,9.49,0,0,0-3-.16,7.83,7.83,0,0,0-2.73.89,6,6,0,0,0-3.1,3.84l0,.21-.16-.14a4.45,4.45,0,0,0-2.81-1,5,5,0,0,0-2.28.48A5.58,5.58,0,0,0,135.41,68.14Z" style="fill:#455a64"></path><path d="M167.18,62.63a1.91,1.91,0,0,1-.13.31,6,6,0,0,0-.28.93c-.1.41-.19.92-.31,1.52a5,5,0,0,1-.74,2,1.66,1.66,0,0,1-1.1.62,6.23,6.23,0,0,1-1.36-.06,2.7,2.7,0,0,0-1.35.13,3.76,3.76,0,0,0-1.14.92c-.34.39-.66.82-1,1.26a5.58,5.58,0,0,1-1.16,1.29,3.7,3.7,0,0,1-1.74.63,2.84,2.84,0,0,1-1,0,1.37,1.37,0,0,1-.87-.56l.29,0a4.5,4.5,0,0,1-.5,1.35,4.74,4.74,0,0,1-.94,1.15,5.55,5.55,0,0,1-2.77,1.23,6.78,6.78,0,0,1-1.27.08,2.8,2.8,0,0,0-1.16,0,1.63,1.63,0,0,0-.84.7,7.7,7.7,0,0,1-.79.91A6.28,6.28,0,0,1,143,79a5.72,5.72,0,0,1-3.77-1.52,5.87,5.87,0,0,1-1.8-3l.13.08A3.11,3.11,0,0,1,135,74a2.9,2.9,0,0,1-1.07-1.7,2.81,2.81,0,0,1,0-1.26,1.9,1.9,0,0,1,.09-.32.39.39,0,0,1,0-.1,3.54,3.54,0,0,0,0,1.65,2.86,2.86,0,0,0,1.07,1.59,3,3,0,0,0,2.44.49l.11,0,0,.11a5.88,5.88,0,0,0,1.77,2.85A5.53,5.53,0,0,0,143,78.65a6,6,0,0,0,3.84-1.94,7.17,7.17,0,0,0,.76-.88,2,2,0,0,1,1-.81,1.82,1.82,0,0,1,.66-.09l.61,0a7,7,0,0,0,1.21-.07,5.15,5.15,0,0,0,2.6-1.16A4.09,4.09,0,0,0,155,71.44l.09-.37.2.32a1.61,1.61,0,0,0,1.53.46,3.45,3.45,0,0,0,1.59-.56,5.45,5.45,0,0,0,1.11-1.23c.35-.43.68-.87,1-1.26a3.67,3.67,0,0,1,1.24-1,2.92,2.92,0,0,1,1.48-.13,5.89,5.89,0,0,0,1.3.08,1.47,1.47,0,0,0,1-.53,5,5,0,0,0,.74-1.88c.13-.59.24-1.11.35-1.52a5,5,0,0,1,.34-.92C167.1,62.72,167.17,62.62,167.18,62.63Z" style="fill:#455a64"></path><path d="M160.92,100a4.38,4.38,0,0,0,1.78,5.34,2.83,2.83,0,0,0,2.19.24,2.88,2.88,0,0,0,2-1.64,5.6,5.6,0,0,0,.49-2.66C165.6,100.86,162.74,100.41,160.92,100Z" style="fill:#6f4439"></path><path d="M166.65,104.47a1.54,1.54,0,0,1-.47.48,3.4,3.4,0,0,1-1.71.63,3.51,3.51,0,0,1-2.57-.81,4.1,4.1,0,0,1-1.5-2.94,5.38,5.38,0,0,1,.18-1.76l0-.14.15,0c1.87.36,3.51.69,4.67.94a12.48,12.48,0,0,1,1.86.46,12.74,12.74,0,0,1-1.9-.25c-1.17-.2-2.82-.49-4.69-.84l.18-.11a5,5,0,0,0-.16,1.64,3.86,3.86,0,0,0,1.36,2.74,3.43,3.43,0,0,0,4,.3C166.47,104.62,166.63,104.45,166.65,104.47Z" style="fill:#263238"></path><path d="M157.22,427l-1.12,25.54s25.58,9.71,25.84,14.45l-49.6-.39.11-39.86Z" style="fill:#455a64"></path><path d="M140.78,450.3a2,2,0,0,0-1.42,2.3,2,2,0,0,0,2.27,1.43,2.14,2.14,0,0,0,1.49-2.45,2,2,0,0,0-2.52-1.22" style="fill:#e0e0e0"></path><g style="opacity:0.6000000000000001"><path d="M132.34,466.63l.17-4L180,464.49s2.2,1,1.94,2.53Z" style="fill:#fff"></path></g><path d="M156.91,452.32c0,.24-1.23.34-2.42,1.11s-1.84,1.79-2.07,1.69.15-1.5,1.62-2.4S157,452.1,156.91,452.32Z" style="fill:#263238"></path><path d="M162.09,454.51c.06.24-1,.64-1.83,1.66s-1.07,2.1-1.31,2.09-.39-1.39.67-2.63S162.09,454.28,162.09,454.51Z" style="fill:#263238"></path><path d="M165,460.76c-.22.05-.55-1.16.08-2.48s1.77-1.84,1.87-1.64-.6.91-1.11,2S165.24,460.74,165,460.76Z" style="fill:#263238"></path><path d="M156.52,446.47c-.11.22-1.22-.12-2.59,0s-2.44.51-2.56.3.91-1.06,2.52-1.14S156.64,446.28,156.52,446.47Z" style="fill:#263238"></path><path d="M157.15,446.18a41,41,0,0,1,.07,6.15l-.2-.3c2.9,1.1,6.75,2.59,10.84,4.51a58.74,58.74,0,0,1,11,6.33,11.72,11.72,0,0,1,2.72,2.77c.52.8.45,1.41.37,1.38a3.53,3.53,0,0,0-.64-1.19,13.55,13.55,0,0,0-2.8-2.49,72.11,72.11,0,0,0-11-6c-4.07-1.92-7.88-3.47-10.72-4.69l-.21-.09v-.21A42.57,42.57,0,0,1,157.15,446.18Z" style="fill:#263238"></path><path d="M125.14,248.94v23.15L134.28,346s-2.9,34.66-4.68,54.23c-1.54,17,1,46.58,1,46.58h27.07l9.69-98.69,6-61.54,10.9-36.46Z" style="fill:#263238"></path><path d="M173.13,422.6,166,447.16s22.59,15.45,21.72,20.12l-48.12-12,9.48-38.72Z" style="fill:#455a64"></path><path d="M151.69,441.35a2,2,0,0,0-1.92,1.9,1.94,1.94,0,0,0,1.87,1.92,2.13,2.13,0,0,0,2-2,2,2,0,0,0-2.17-1.78" style="fill:#e0e0e0"></path><g style="opacity:0.6000000000000001"><path d="M139.64,455.24l1.11-3.86,45.72,13s1.91,1.47,1.29,2.92Z" style="fill:#fff"></path></g><path d="M166.89,447.11c-.07.23-1.27,0-2.62.51s-2.21,1.3-2.4,1.15.5-1.41,2.14-1.95S167,446.91,166.89,447.11Z" style="fill:#263238"></path><path d="M171.41,450.46c0,.24-1.12.38-2.17,1.18s-1.54,1.79-1.77,1.72-.05-1.44,1.27-2.4S171.46,450.23,171.41,450.46Z" style="fill:#263238"></path><path d="M172.76,457.22c-.22,0-.25-1.26.67-2.4s2.15-1.37,2.2-1.15-.8.74-1.54,1.68S173,457.25,172.76,457.22Z" style="fill:#263238"></path><path d="M167.88,441.33c-.15.19-1.15-.4-2.5-.64s-2.49-.09-2.56-.32,1.13-.82,2.72-.51S168,441.18,167.88,441.33Z" style="fill:#263238"></path><polygon points="194.71 250.52 195.95 263.11 194.45 354.52 173.03 427.95 167.84 445.76 140.19 440.55 161.5 250.55 194.71 250.52" style="fill:#263238"></polygon><path d="M193.87,356.44s0,.14-.1.43-.2.72-.35,1.27c-.32,1.13-.79,2.78-1.39,4.92-1.24,4.3-3,10.56-5.31,18.46-4.59,15.81-11.06,38.14-18.65,64.3L168,446l-.22,0-27.65-5.2-.26-.05.05-.25c1.41-7.45,2.89-15.24,4.39-23.17,4.47-23.52,8.68-45.7,12.36-65.07v.08c-4.58-28.75-8.23-51.67-10.33-64.84v0l-4.61-8.4c-.52-.95-.91-1.67-1.18-2.18s-.39-.74-.39-.74.16.24.44.72l1.22,2.14,4.71,8.36h0v0c2.15,13.15,5.89,36.06,10.58,64.79v.08c-3.67,19.38-7.86,41.57-12.31,65.08-1.5,7.94-3,15.73-4.39,23.18l-.21-.3,27.65,5.22-.28.17,18.83-64.26c2.33-7.87,4.17-14.12,5.44-18.42.64-2.13,1.13-3.77,1.47-4.89l.39-1.26C193.82,356.58,193.87,356.44,193.87,356.44Z" style="fill:#455a64"></path><path d="M189.74,258a8.48,8.48,0,0,1-1.5,2.21,20.34,20.34,0,0,1-4.92,4.19,20.13,20.13,0,0,1-6,2.44,9.1,9.1,0,0,1-2.66.33c-.05-.18,4.11-.58,8.36-3.21A30.1,30.1,0,0,0,189.74,258Z" style="fill:#455a64"></path><path d="M111.3,185.43s-3.22,20.7-1.06,28.89,19.69,28.89,19.69,28.89l23.92-15-15.76-39.14Z" style="fill:#ae7461"></path><path d="M133.44,134.06s13.73.2,13.93,17.32-3.49,40-3.49,40l-35.06-6.18s4.35-31.87,8.06-41.05S127.75,132.5,133.44,134.06Z" style="fill:#455a64"></path><path d="M140,121.73l-.44,2.8s-18.74,12.38-19.8,15.57c-1.64,5,1.94,46.81,3.52,58.67s1.9,38,1.9,38c-1.15,3.08-2.45,5.86-2.88,10.15s2.88,8.15,2.88,8.15c20.11,6.56,44.67,1.53,71.24-4.53l-.25-7.53-8.68-81.83s2.53-21.27-7.85-27.43c-1.14-.67-10.19-5.81-10.19-5.81Z" style="fill:#455a64"></path><path d="M170.09,157.21a63.54,63.54,0,0,0,6.17,25.24A74.87,74.87,0,0,0,192,204.32l-2.81-24.48Z" style="opacity:0.30000000000000004"></path><path d="M185.82,136.55c-3.28-2.66-9.39-4.11-12.88-1.72a10.53,10.53,0,0,0-4.23,5.21c-3,8.7-1.19,18.06,1.19,25s13.89,20.32,13.89,20.32l28.42-17.26s-19-23.06-21-25.44C190.17,141.41,187.65,138,185.82,136.55Z" style="fill:#455a64"></path><path d="M185.82,136.55a4.74,4.74,0,0,1,.61.48,20.08,20.08,0,0,1,1.56,1.59c1.32,1.45,3.06,3.71,5.4,6.47l19,22.86.18.21-.23.14-26.86,16.33-1.56,1-.19.11-.14-.16c-3.18-3.76-6.14-7.54-8.79-11.34a60.25,60.25,0,0,1-3.62-5.78,22.93,22.93,0,0,1-1.4-3c-.38-1-.69-2-1-3.08-2.37-8.16-2.43-16.17-.27-22.26a10.49,10.49,0,0,1,5.92-6.11,9.45,9.45,0,0,1,3.54-.42,13.14,13.14,0,0,1,2.94.5,14.21,14.21,0,0,1,3.76,1.66,6.51,6.51,0,0,1,1.14.87s-.39-.31-1.19-.78a14.81,14.81,0,0,0-3.76-1.55,13,13,0,0,0-2.91-.46,9.52,9.52,0,0,0-3.43.45,9.36,9.36,0,0,0-3.29,2.21,9.26,9.26,0,0,0-2.37,3.74c-2.09,6-2,13.93.38,22,.3,1,.61,2,1,3a25.37,25.37,0,0,0,1.38,3,61.12,61.12,0,0,0,3.61,5.72c2.64,3.78,5.6,7.55,8.76,11.29l-.33-.06,1.56-.94,26.88-16.29-.06.35c-7.72-9.42-14.24-17.37-18.85-23-2.32-2.78-4-5.08-5.3-6.55-.63-.74-1.15-1.29-1.51-1.64S185.81,136.56,185.82,136.55Z" style="fill:#263238"></path><path d="M119.35,149.58a1.53,1.53,0,0,1,.08.49c0,.39.08.86.14,1.43.09,1.32.22,3.1.38,5.26.28,4.51.67,10.61,1.1,17.35s.91,12.9,1.31,17.33c.2,2.15.36,3.92.49,5.24.05.57.09,1,.12,1.43a1.89,1.89,0,0,1,0,.5,1.6,1.6,0,0,1-.11-.49c-.06-.38-.14-.85-.23-1.41-.18-1.24-.41-3-.65-5.24-.49-4.42-1-10.55-1.46-17.33s-.75-12.92-1-17.36c-.09-2.16-.16-3.94-.22-5.27,0-.57,0-1,0-1.43A2.73,2.73,0,0,1,119.35,149.58Z" style="fill:#263238"></path><path d="M182.22,248.94a2,2,0,0,1-.53.17l-1.53.37c-.67.17-1.49.34-2.45.52s-2,.39-3.26.58c-2.41.41-5.31.75-8.54,1.06s-6.79.47-10.54.52-7.31-.1-10.54-.32-6.14-.55-8.57-.94c-1.21-.17-2.3-.37-3.26-.56s-1.78-.33-2.44-.5l-1.54-.37a2.31,2.31,0,0,1-.53-.16,1.88,1.88,0,0,1,.55.06l1.56.27c.67.14,1.49.27,2.45.42s2,.33,3.27.47c2.42.35,5.32.6,8.54.84s6.78.3,10.51.27,7.28-.23,10.5-.47,6.11-.59,8.53-1c1.21-.16,2.3-.34,3.26-.5s1.78-.29,2.46-.43l1.55-.27A3,3,0,0,1,182.22,248.94Z" style="fill:#263238"></path><path d="M322.21,139.3h-12c-2.8,1-21.05,28.89-21.05,28.89l19.06,21.14,9.2-19.51Z" style="fill:#1890FF"></path><path d="M310.24,139.3,335,131.72s-.12,6,8.52,6.16c9.94.22,18.28-8.52,18.28-8.52s20.67,6.44,25,9.94S377,215.93,377,215.93l-1.28,21.78a16.13,16.13,0,0,1,2.13,7.3c0,3.78.14,6.3.14,6.3-26.5,8-52.8,14.92-77,7.18,0,0,.6-12.85,2-16.35s1.14-3.82,1.14-3.82l2.31-40.21.42-30.25Z" style="fill:#1890FF"></path><path d="M395.94,171.82s2.72,42.73,2.7,49c0,4.66-10.15,53.41-10.15,53.41l-15.06-5.07,5.29-47.38-5.29-50Z" style="fill:#ffbf9d"></path><path d="M387,139.27a22.57,22.57,0,0,1,8.36,13.54c1.81,9.09,5.82,31.74,5.82,31.74l-32.33,1.28s1.94-15.73,1.94-16.73,5.47-22.65,5.81-23.14S387,139.27,387,139.27Z" style="fill:#1890FF"></path><path d="M306.85,150.45c.14,0,.21,9.3.16,20.77S306.8,192,306.66,192s-.22-9.3-.17-20.78S306.7,150.45,306.85,150.45Z" style="fill:#263238"></path><path d="M401.18,184.55a3.47,3.47,0,0,1-.6.07l-1.73.12-6.41.36-21.38,1-.25,0,0-.25c-.05-.66-.1-1.37-.16-2.08a128.76,128.76,0,0,1,.48-22.8c.32-2.91.68-5.24,1-6.85.14-.81.26-1.43.35-1.85a3.29,3.29,0,0,1,.16-.64,2.71,2.71,0,0,1-.06.66c-.06.48-.15,1.09-.25,1.86-.22,1.61-.52,4-.8,6.85a142,142,0,0,0-.32,22.73c.06.71.11,1.42.16,2.07l-.27-.23,21.38-.84,6.42-.19,1.74,0A2.34,2.34,0,0,1,401.18,184.55Z" style="fill:#263238"></path><path d="M382.18,139.78a47.08,47.08,0,0,0-4.53,3.55,47.69,47.69,0,0,0-3.68,4.44,15,15,0,0,1,8.21-8Z" style="fill:#263238"></path><path d="M373.15,272.55s-6,4.55-7.34,6.34-4.58,8.19-7,10.06a1.84,1.84,0,0,0,2.91,1.24,20.66,20.66,0,0,0,6.35-5.51c1-1.56,2.09-.65,2.15.72S369.1,296,369.1,296s-2.88,10.24-2.11,11.39a1.87,1.87,0,0,0,2.93.14c.39-.54,3.64-9.1,3.64-9.1l.83-4.66s-1.67,14.75-.74,15.91a1.61,1.61,0,0,0,2.59.12c.65-.59,1.32-7.11,1.32-7.11l1.52-8.7-.28,16.59s.18,1.57,1.41,1.63,2.06-1.76,2.06-1.76l1.78-17.1s-.57,9.51.07,10c.85.67,1.63.45,1.91-.28.57-1.48,1.41-10,1.41-10l.78-16.28.84-7.84-15.23-1Z" style="fill:#ffbf9d"></path><path d="M367.6,244.76a2.12,2.12,0,0,1-.54.26l-1.61.65c-1.39.56-3.43,1.3-6,2.13s-5.62,1.73-9.07,2.6-7.27,1.64-11.32,2.28-7.94,1-11.49,1.3-6.74.33-9.43.31-4.85-.09-6.35-.2l-1.73-.13a3.23,3.23,0,0,1-.59-.07,2.34,2.34,0,0,1,.6,0l1.73,0c1.49,0,3.66.06,6.34,0s5.87-.16,9.4-.42,7.4-.71,11.44-1.33,7.84-1.43,11.29-2.24,6.52-1.68,9.07-2.48,4.62-1.47,6-2l1.64-.55A3.33,3.33,0,0,1,367.6,244.76Z" style="fill:#263238"></path><path d="M370.35,176.51s0,0-.15.1a3.68,3.68,0,0,1-.47.22,6.47,6.47,0,0,1-2,.46,13.56,13.56,0,0,1-7.06-1.79c-1.39-.69-2.86-1.53-4.52-2.22a14,14,0,0,0-2.64-.81,9.75,9.75,0,0,0-1.43-.14c-.24,0-.49,0-.73,0l-.75.06a16.67,16.67,0,0,0-6,1.89c-2,1-3.92,2.21-6,3.38a26.86,26.86,0,0,1-6.32,2.81,12.62,12.62,0,0,1-6.45.09,28.52,28.52,0,0,1-5.44-2.1c-1.64-.78-3.14-1.55-4.58-2.07a13.77,13.77,0,0,0-7.09-1,11.19,11.19,0,0,0-2.52.82,3.87,3.87,0,0,1,.59-.37,8,8,0,0,1,1.9-.65A13.48,13.48,0,0,1,316,176c1.48.51,3,1.26,4.65,2a29.24,29.24,0,0,0,5.36,2,12.36,12.36,0,0,0,6.21-.12,26.93,26.93,0,0,0,6.19-2.77c2-1.17,4-2.4,6-3.39a17.13,17.13,0,0,1,6.16-1.91l.78-.05a6.45,6.45,0,0,1,.76,0,9.3,9.3,0,0,1,1.5.16,14.3,14.3,0,0,1,2.71.86c1.69.73,3.15,1.59,4.52,2.29a13.77,13.77,0,0,0,6.89,1.92A8.72,8.72,0,0,0,370.35,176.51Z" style="fill:#fff"></path><path d="M371.7,181.83a3.16,3.16,0,0,1-.51.49,6,6,0,0,1-1.82.91,10.93,10.93,0,0,1-7.32-.93c-1.45-.65-2.92-1.54-4.55-2.38a14.23,14.23,0,0,0-5.45-1.82,10.94,10.94,0,0,0-6.09,1.5,60.36,60.36,0,0,0-5.79,3.84,21.33,21.33,0,0,1-6.24,3.23,13,13,0,0,1-6.56,0c-4.09-1-7.38-2.87-10.34-3.81a16.83,16.83,0,0,0-7.22-1.07,13.73,13.73,0,0,0-2.64.6,3,3,0,0,1,.64-.3,8.61,8.61,0,0,1,2-.5,16.32,16.32,0,0,1,7.36.92c3,.92,6.34,2.76,10.34,3.69a12.5,12.5,0,0,0,6.31,0,21,21,0,0,0,6.08-3.17,60.19,60.19,0,0,1,5.85-3.86,11.42,11.42,0,0,1,6.36-1.53,14.84,14.84,0,0,1,5.62,1.91c1.63.87,3.1,1.78,4.5,2.43a10.87,10.87,0,0,0,7.11,1.07A7,7,0,0,0,371.7,181.83Z" style="fill:#fff"></path></g></svg>