<svg xmlns="http://www.w3.org/2000/svg" viewBox="0 0 500 500"><g id="freepik--Treasure--inject-23"><polygon points="185.05 319.85 202.4 236.46 188.46 320.48 234.76 249 191.41 322.31 260.41 272.38 193.5 325.08 275.88 303.45 194.45 328.42 266.24 337.08 194.13 331.87 268.04 371.05 192.58 334.98 248.67 399.07 190.02 337.32 219.16 417.35 186.78 338.57 185.05 423.72 183.31 338.57 150.93 417.35 180.08 337.32 121.43 399.07 177.51 334.98 100.52 371.38 175.97 331.87 95.67 337.48 175.64 328.42 94.22 303.45 176.59 325.08 109.69 272.38 178.69 322.31 135.34 249 181.64 320.48 167.69 236.46 185.05 319.85" style="fill:#1890FF"></polygon><polygon points="185.05 319.85 202.4 236.46 188.46 320.48 234.76 249 191.41 322.31 260.41 272.38 193.5 325.08 275.88 303.45 194.45 328.42 264.46 336.35 194.13 331.87 268.39 371.11 192.58 334.98 248.67 399.07 190.02 337.32 219.16 417.35 186.78 338.57 185.05 423.72 183.31 338.57 150.93 417.35 180.08 337.32 121.43 399.07 177.51 334.98 100.52 371.38 175.97 331.87 95.67 337.48 175.64 328.42 94.22 303.45 176.59 325.08 109.69 272.38 178.69 322.31 135.34 249 181.64 320.48 167.69 236.46 185.05 319.85" style="fill:#fff;opacity:0.9"></polygon><polygon points="180.57 305.04 186.05 257.99 190.1 305.19 212.21 263.29 198.93 308.76 234.68 277.68 205.88 315.29 250.44 299.23 210 323.89 257.36 325 210.74 333.39 254.49 351.54 207.99 342.52 242.24 375.25 202.13 350.04 222.24 392.93 193.95 354.94 197.21 402.2 184.55 356.55 170.52 401.79 175.21 354.65 145.78 391.77 167.18 349.51 126.33 373.5 161.55 341.82 114.8 349.43 159.08 332.61 112.74 322.81 160.11 323.13 120.43 297.25 164.49 314.67 136.83 276.2 171.63 308.35 159.74 262.5 180.57 305.04" style="fill:#1890FF"></polygon><polygon points="180.57 305.04 186.05 257.99 190.1 305.19 212.21 263.29 198.93 308.76 234.68 277.68 205.88 315.29 250.44 299.23 210 323.89 257.36 325 210.74 333.39 254.49 351.54 207.99 342.52 242.24 375.25 202.13 350.04 222.24 392.93 193.95 354.94 197.21 402.2 184.55 356.55 170.52 401.79 175.21 354.65 145.78 391.77 167.18 349.51 126.33 373.5 161.55 341.82 114.8 349.43 159.08 332.61 112.74 322.81 160.11 323.13 120.43 297.25 164.49 314.67 136.83 276.2 171.63 308.35 159.74 262.5 180.57 305.04" style="fill:#fff;opacity:0.8"></polygon><rect x="96.38" y="313.95" width="172.39" height="143.04" style="fill:#1890FF"></rect><path d="M263.2,321.19a2.38,2.38,0,1,1-3.35-.18A2.37,2.37,0,0,1,263.2,321.19Z" style="fill:#e0e0e0"></path><path d="M263.2,321.19s-.18-.12-.5-.3a2.36,2.36,0,0,0-1.44-.3,2.25,2.25,0,0,0-1.71,1.18,2.15,2.15,0,0,0,2.69,3,2.22,2.22,0,0,0,1.35-1.57,2.38,2.38,0,0,0-.14-1.47c-.15-.34-.28-.5-.25-.53s.21.1.43.43a2.39,2.39,0,0,1,.32,1.63,2.54,2.54,0,0,1-1.53,1.95,2.6,2.6,0,0,1-3.29-3.65,2.54,2.54,0,0,1,2.1-1.32,2.39,2.39,0,0,1,1.59.49C263.12,321,263.23,321.17,263.2,321.19Z" style="fill:#263238"></path><rect x="113.71" y="331.12" width="137.69" height="108.29" style="opacity:0.30000000000000004"></rect><path d="M215.59,332.91c0,.14-13.48.26-30.1.26s-30.1-.12-30.1-.26,13.48-.26,30.1-.26S215.59,332.77,215.59,332.91Z" style="fill:#fff"></path><path d="M251.4,439.4s0-.68,0-2,0-3.25,0-5.78c0-5.06,0-12.48,0-21.93,0-18.9-.07-45.95-.11-78.58l.21.21-137.68.05h0l.26-.26c0,39.06,0,76,0,108.28l-.24-.23,99.44.12,28.19.06,7.47,0h2.59l-.63,0h-1.9l-7.43,0-28.13.06-99.6.12h-.23v-.24c0-32.29,0-69.22,0-108.28v-.26h.27l137.68,0h.22v.22c-.05,32.69-.09,59.78-.11,78.71,0,9.44,0,16.84-.06,21.89,0,2.5,0,4.43,0,5.73S251.4,439.4,251.4,439.4Z" style="fill:#263238"></path><path d="M251.4,424.29c0,.14-30.83.26-68.85.26s-68.87-.12-68.87-.26,30.83-.26,68.87-.26S251.4,424.14,251.4,424.29Z" style="fill:#263238"></path><path d="M251.4,408.06c0,.14-30.83.26-68.85.26s-68.87-.12-68.87-.26,30.83-.26,68.87-.26S251.4,407.92,251.4,408.06Z" style="fill:#263238"></path><path d="M251.4,391.83c0,.15-30.83.26-68.85.26s-68.87-.11-68.87-.26,30.83-.26,68.87-.26S251.4,391.69,251.4,391.83Z" style="fill:#263238"></path><path d="M251.4,375.61c0,.14-30.83.26-68.85.26s-68.87-.12-68.87-.26,30.83-.26,68.87-.26S251.4,375.46,251.4,375.61Z" style="fill:#263238"></path><path d="M251.4,359.38c0,.14-30.83.26-68.85.26s-68.87-.12-68.87-.26,30.83-.26,68.87-.26S251.4,359.24,251.4,359.38Z" style="fill:#263238"></path><path d="M251.4,343.15c0,.15-30.83.26-68.85.26s-68.87-.11-68.87-.26,30.83-.26,68.87-.26S251.4,343,251.4,343.15Z" style="fill:#263238"></path><path d="M179.58,344.58c0,.14-7.85.26-17.53.26s-17.53-.12-17.53-.26,7.85-.26,17.53-.26S179.58,344.43,179.58,344.58Z" style="fill:#fff"></path><path d="M197.1,344.58a22.36,22.36,0,0,1-6.8,0,22.36,22.36,0,0,1,6.8,0Z" style="fill:#fff"></path><path d="M213.32,361.58c0,.14-7.15.26-16,.26s-16-.12-16-.26,7.14-.26,16-.26S213.32,361.44,213.32,361.58Z" style="fill:#fff"></path><path d="M184.81,377.54c0,.14-4.92.26-11,.26s-11-.12-11-.26,4.92-.26,11-.26S184.81,377.39,184.81,377.54Z" style="fill:#fff"></path><path d="M194.49,393.23a34.36,34.36,0,0,1-6,.26,34.36,34.36,0,0,1-6-.26,35.56,35.56,0,0,1,6-.26A35.56,35.56,0,0,1,194.49,393.23Z" style="fill:#fff"></path><path d="M105.84,417.52a2.38,2.38,0,1,1,.17-3.36A2.38,2.38,0,0,1,105.84,417.52Z" style="fill:#e0e0e0"></path><path d="M105.84,417.52s.11-.18.29-.5a2.38,2.38,0,0,0,.3-1.45,2.2,2.2,0,0,0-1.18-1.7,2.14,2.14,0,0,0-3,2.68,2.2,2.2,0,0,0,1.57,1.36,2.39,2.39,0,0,0,1.47-.15c.33-.14.5-.27.53-.24s-.11.21-.44.42a2.36,2.36,0,0,1-1.63.33,2.57,2.57,0,0,1-2-1.54,2.61,2.61,0,0,1,3.66-3.29,2.57,2.57,0,0,1,1.32,2.1,2.35,2.35,0,0,1-.5,1.59C106.05,417.44,105.85,417.54,105.84,417.52Z" style="fill:#263238"></path><path d="M105.84,447.37A2.38,2.38,0,1,1,106,444,2.38,2.38,0,0,1,105.84,447.37Z" style="fill:#e0e0e0"></path><path d="M105.84,447.37s.11-.18.29-.5a2.36,2.36,0,0,0,.3-1.44,2.2,2.2,0,0,0-1.18-1.71,2.14,2.14,0,0,0-3,2.69,2.2,2.2,0,0,0,1.57,1.35,2.4,2.4,0,0,0,1.47-.14c.33-.15.5-.28.53-.25s-.11.21-.44.43a2.36,2.36,0,0,1-1.63.32,2.58,2.58,0,0,1-2-1.53,2.61,2.61,0,0,1,3.66-3.29,2.57,2.57,0,0,1,1.32,2.1,2.38,2.38,0,0,1-.5,1.59C106.05,447.29,105.85,447.4,105.84,447.37Z" style="fill:#263238"></path><path d="M106.58,382.17a2.38,2.38,0,1,1,.18-3.36A2.36,2.36,0,0,1,106.58,382.17Z" style="fill:#e0e0e0"></path><path d="M106.58,382.17s.12-.19.3-.5a2.38,2.38,0,0,0,.3-1.45,2.2,2.2,0,0,0-1.18-1.7,2.15,2.15,0,0,0-3,2.68,2.21,2.21,0,0,0,1.58,1.35,2.4,2.4,0,0,0,1.47-.14c.33-.14.5-.27.52-.24s-.1.2-.43.42a2.36,2.36,0,0,1-1.63.33,2.54,2.54,0,0,1-2-1.54,2.6,2.6,0,0,1,3.65-3.29,2.54,2.54,0,0,1,1.32,2.1,2.35,2.35,0,0,1-.49,1.59C106.8,382.09,106.6,382.19,106.58,382.17Z" style="fill:#263238"></path><path d="M106.58,352.08a2.38,2.38,0,1,1,.18-3.36A2.36,2.36,0,0,1,106.58,352.08Z" style="fill:#e0e0e0"></path><path d="M106.58,352.08s.12-.18.3-.5a2.38,2.38,0,0,0,.3-1.45,2.2,2.2,0,0,0-1.18-1.7,2.15,2.15,0,0,0-3,2.69,2.24,2.24,0,0,0,1.58,1.35,2.32,2.32,0,0,0,1.47-.15c.33-.14.5-.27.52-.24s-.1.21-.43.42a2.36,2.36,0,0,1-1.63.33,2.54,2.54,0,0,1-2-1.53,2.6,2.6,0,0,1,3.65-3.29,2.53,2.53,0,0,1,1.32,2.09,2.35,2.35,0,0,1-.49,1.59C106.8,352,106.6,352.1,106.58,352.08Z" style="fill:#263238"></path><path d="M106.58,325.85a2.38,2.38,0,1,1,.18-3.36A2.38,2.38,0,0,1,106.58,325.85Z" style="fill:#e0e0e0"></path><path d="M106.58,325.85s.12-.19.3-.5a2.41,2.41,0,0,0,.3-1.45,2.2,2.2,0,0,0-1.18-1.71,2.15,2.15,0,0,0-3,2.69,2.21,2.21,0,0,0,1.58,1.35,2.4,2.4,0,0,0,1.47-.14c.33-.15.5-.28.52-.24s-.1.2-.43.42a2.36,2.36,0,0,1-1.63.32,2.52,2.52,0,0,1-2-1.53,2.6,2.6,0,0,1,3.65-3.29,2.54,2.54,0,0,1,1.32,2.1,2.37,2.37,0,0,1-.49,1.59C106.8,325.77,106.6,325.87,106.58,325.85Z" style="fill:#263238"></path><path d="M224.47,447.75a2.38,2.38,0,1,1-3.36-.18A2.38,2.38,0,0,1,224.47,447.75Z" style="fill:#e0e0e0"></path><path d="M224.47,447.75s-.19-.12-.5-.3a2.38,2.38,0,0,0-1.45-.29,2.17,2.17,0,0,0-1.39,3.6,2.16,2.16,0,0,0,2.37.56,2.2,2.2,0,0,0,1.35-1.57,2.39,2.39,0,0,0-.14-1.47c-.14-.33-.28-.5-.24-.53s.2.1.42.43a2.35,2.35,0,0,1,.32,1.64,2.53,2.53,0,0,1-1.53,1.94,2.6,2.6,0,0,1-3.29-3.65,2.54,2.54,0,0,1,2.1-1.32,2.42,2.42,0,0,1,1.59.49C224.39,447.53,224.49,447.73,224.47,447.75Z" style="fill:#263238"></path><path d="M261.5,447.75a2.38,2.38,0,1,1-3.35-.18A2.38,2.38,0,0,1,261.5,447.75Z" style="fill:#e0e0e0"></path><path d="M261.5,447.75s-.18-.12-.5-.3a2.37,2.37,0,0,0-1.44-.29,2.2,2.2,0,0,0-1.71,1.18,2.14,2.14,0,0,0,2.69,3,2.22,2.22,0,0,0,1.35-1.57,2.39,2.39,0,0,0-.14-1.47c-.15-.33-.28-.5-.25-.53s.21.1.43.43a2.41,2.41,0,0,1,.32,1.64,2.53,2.53,0,0,1-1.53,1.94,2.6,2.6,0,0,1-3.29-3.65,2.54,2.54,0,0,1,2.1-1.32,2.42,2.42,0,0,1,1.59.49C261.42,447.53,261.53,447.73,261.5,447.75Z" style="fill:#263238"></path><path d="M261.5,415.75a2.38,2.38,0,1,1-3.35-.17A2.38,2.38,0,0,1,261.5,415.75Z" style="fill:#e0e0e0"></path><path d="M261.5,415.75s-.18-.12-.5-.3a2.44,2.44,0,0,0-1.44-.29,2.2,2.2,0,0,0-1.71,1.18,2.14,2.14,0,0,0,2.69,3,2.2,2.2,0,0,0,1.35-1.57,2.4,2.4,0,0,0-.14-1.47c-.15-.33-.28-.5-.25-.53s.21.1.43.44a2.36,2.36,0,0,1,.32,1.63,2.55,2.55,0,0,1-1.53,1.95,2.61,2.61,0,0,1-3.29-3.66,2.54,2.54,0,0,1,2.1-1.32,2.36,2.36,0,0,1,1.59.5C261.42,415.54,261.53,415.73,261.5,415.75Z" style="fill:#263238"></path><path d="M261.5,383.75a2.38,2.38,0,1,1-3.35-.17A2.38,2.38,0,0,1,261.5,383.75Z" style="fill:#e0e0e0"></path><path d="M261.5,383.75s-.18-.11-.5-.29a2.36,2.36,0,0,0-1.44-.3,2.2,2.2,0,0,0-1.71,1.18,2.14,2.14,0,0,0,2.69,3,2.2,2.2,0,0,0,1.35-1.57,2.4,2.4,0,0,0-.14-1.47c-.15-.33-.28-.5-.25-.53s.21.11.43.44a2.36,2.36,0,0,1,.32,1.63,2.54,2.54,0,0,1-1.53,1.95,2.61,2.61,0,0,1-3.29-3.66,2.59,2.59,0,0,1,2.1-1.32,2.36,2.36,0,0,1,1.59.5C261.42,383.54,261.53,383.74,261.5,383.75Z" style="fill:#263238"></path><path d="M261.5,351.76a2.38,2.38,0,1,1-3.35-.18A2.38,2.38,0,0,1,261.5,351.76Z" style="fill:#e0e0e0"></path><path d="M261.5,351.76s-.18-.12-.5-.3a2.36,2.36,0,0,0-1.44-.3,2.25,2.25,0,0,0-1.71,1.18,2.15,2.15,0,0,0,2.69,3,2.22,2.22,0,0,0,1.35-1.57,2.38,2.38,0,0,0-.14-1.47c-.15-.34-.28-.5-.25-.53s.21.1.43.43a2.39,2.39,0,0,1,.32,1.63,2.52,2.52,0,0,1-1.53,1.95,2.6,2.6,0,0,1-3.29-3.65,2.54,2.54,0,0,1,2.1-1.32,2.37,2.37,0,0,1,1.59.49C261.42,351.54,261.53,351.74,261.5,351.76Z" style="fill:#263238"></path><path d="M234.09,321.39a2.38,2.38,0,1,1-3.36-.17A2.38,2.38,0,0,1,234.09,321.39Z" style="fill:#e0e0e0"></path><path d="M234.09,321.39s-.18-.12-.5-.29a2.38,2.38,0,0,0-1.45-.3,2.2,2.2,0,0,0-1.7,1.18,2.14,2.14,0,0,0,2.68,3,2.2,2.2,0,0,0,1.36-1.57,2.39,2.39,0,0,0-.15-1.47c-.14-.33-.27-.5-.24-.53s.21.1.42.44a2.36,2.36,0,0,1,.33,1.63,2.57,2.57,0,0,1-1.54,2,2.61,2.61,0,0,1-3.29-3.66,2.57,2.57,0,0,1,2.1-1.32,2.35,2.35,0,0,1,1.59.5C234,321.18,234.11,321.38,234.09,321.39Z" style="fill:#263238"></path><path d="M203.43,321.39a2.38,2.38,0,1,1-3.36-.17A2.38,2.38,0,0,1,203.43,321.39Z" style="fill:#e0e0e0"></path><path d="M203.43,321.39s-.19-.12-.5-.29a2.4,2.4,0,0,0-1.45-.3,2.2,2.2,0,0,0-1.71,1.18,2.16,2.16,0,1,0,4,1.41,2.4,2.4,0,0,0-.14-1.47c-.15-.33-.28-.5-.24-.53s.2.1.42.44a2.36,2.36,0,0,1,.32,1.63,2.55,2.55,0,0,1-1.53,2,2.61,2.61,0,0,1-3.29-3.66,2.57,2.57,0,0,1,2.1-1.32,2.36,2.36,0,0,1,1.59.5C203.35,321.18,203.45,321.38,203.43,321.39Z" style="fill:#263238"></path><path d="M171.17,321.39a2.38,2.38,0,1,1-3.54,3.18,2.38,2.38,0,0,1,3.54-3.18Z" style="fill:#e0e0e0"></path><path d="M171.17,321.39s-.19-.12-.5-.29a2.41,2.41,0,0,0-1.45-.3,2.2,2.2,0,0,0-1.71,1.18,2.16,2.16,0,1,0,4,1.41,2.4,2.4,0,0,0-.14-1.47c-.15-.33-.28-.5-.24-.53s.2.1.42.44a2.36,2.36,0,0,1,.32,1.63,2.55,2.55,0,0,1-1.53,2,2.61,2.61,0,0,1-3.29-3.66,2.57,2.57,0,0,1,2.1-1.32,2.36,2.36,0,0,1,1.59.5C171.09,321.18,171.19,321.38,171.17,321.39Z" style="fill:#263238"></path><path d="M137.13,321.39a2.38,2.38,0,1,1-3.54,3.18,2.38,2.38,0,0,1,3.54-3.18Z" style="fill:#e0e0e0"></path><path d="M137.13,321.39s-.19-.12-.5-.29a2.41,2.41,0,0,0-1.45-.3,2.2,2.2,0,0,0-1.71,1.18,2.16,2.16,0,1,0,4,1.41,2.4,2.4,0,0,0-.14-1.47c-.15-.33-.28-.5-.24-.53s.2.1.42.44a2.36,2.36,0,0,1,.32,1.63,2.55,2.55,0,0,1-1.53,2,2.61,2.61,0,0,1-3.29-3.66,2.57,2.57,0,0,1,2.1-1.32,2.36,2.36,0,0,1,1.59.5C137.05,321.18,137.15,321.38,137.13,321.39Z" style="fill:#263238"></path><path d="M190,447.75a2.38,2.38,0,1,1-3.35-.18A2.38,2.38,0,0,1,190,447.75Z" style="fill:#e0e0e0"></path><path d="M190,447.75s-.18-.12-.5-.3a2.37,2.37,0,0,0-1.44-.29,2.2,2.2,0,0,0-1.71,1.18,2.14,2.14,0,0,0,2.69,3,2.22,2.22,0,0,0,1.35-1.57,2.39,2.39,0,0,0-.14-1.47c-.15-.33-.28-.5-.25-.53s.21.1.43.43a2.41,2.41,0,0,1,.32,1.64,2.53,2.53,0,0,1-1.53,1.94,2.6,2.6,0,0,1-3.29-3.65,2.54,2.54,0,0,1,2.1-1.32,2.42,2.42,0,0,1,1.59.49C189.92,447.53,190,447.73,190,447.75Z" style="fill:#263238"></path><path d="M159.46,447.75a2.38,2.38,0,1,1-3.35-.18A2.38,2.38,0,0,1,159.46,447.75Z" style="fill:#e0e0e0"></path><path d="M159.46,447.75s-.18-.12-.5-.3a2.37,2.37,0,0,0-1.44-.29,2.2,2.2,0,0,0-1.71,1.18,2.14,2.14,0,0,0,2.69,3,2.22,2.22,0,0,0,1.35-1.57,2.39,2.39,0,0,0-.14-1.47c-.15-.33-.28-.5-.25-.53s.21.1.43.43a2.41,2.41,0,0,1,.32,1.64,2.53,2.53,0,0,1-1.53,1.94,2.6,2.6,0,0,1-3.29-3.65,2.54,2.54,0,0,1,2.1-1.32,2.42,2.42,0,0,1,1.59.49C159.39,447.53,159.49,447.73,159.46,447.75Z" style="fill:#263238"></path><path d="M131.3,447a2.38,2.38,0,1,1-3.35-.17A2.38,2.38,0,0,1,131.3,447Z" style="fill:#e0e0e0"></path><path d="M131.3,447s-.18-.12-.5-.3a2.37,2.37,0,0,0-1.44-.29,2.2,2.2,0,0,0-1.71,1.18,2.14,2.14,0,0,0,2.69,3,2.22,2.22,0,0,0,1.35-1.57,2.4,2.4,0,0,0-.14-1.47c-.15-.33-.28-.5-.25-.53s.21.1.43.44a2.36,2.36,0,0,1,.32,1.63,2.58,2.58,0,0,1-1.53,1.95,2.6,2.6,0,0,1-3.29-3.66,2.54,2.54,0,0,1,2.1-1.32,2.38,2.38,0,0,1,1.59.5C131.22,446.79,131.32,447,131.3,447Z" style="fill:#263238"></path><path d="M261.44,315c0,.14-35,.26-78.22.26S105,315.11,105,315s35-.26,78.23-.26S261.44,314.82,261.44,315Z" style="fill:#fff"></path><path d="M187.66,157.13c-1.9,2-109,143-109,143L96.38,314,205.12,166.78Z" style="fill:#1890FF"></path><path d="M78.79,300.15s-11.57-56.81,20.32-97.47c39.55-50.41,88.72-45.42,88.72-45.42l.68,9.69Z" style="fill:#1890FF"></path><path d="M91.67,293.6l94.7-123.85s-44.46,1.87-72.66,38.76C82.07,249.91,91.67,293.6,91.67,293.6Z" style="opacity:0.30000000000000004"></path><path d="M201.66,169.91s-.08.14-.24.39l-.75,1.11-2.91,4.25c-2.54,3.68-6.24,9-10.85,15.51-9.22,13.07-22.12,31-36.68,50.58s-28,37.09-37.88,49.68c-4.93,6.29-8.94,11.37-11.74,14.86l-3.23,4-.85,1c-.19.23-.3.34-.3.34s.08-.13.26-.37.47-.61.81-1.07l3.15-4.07,11.61-15c9.78-12.64,23.19-30.19,37.76-49.76S177.31,204,186.61,191c4.62-6.5,8.37-11.76,11-15.42l3-4.19c.33-.46.59-.82.79-1.08Z" style="fill:#fff"></path><path d="M91.67,293.6l-.06-.21-.13-.62c-.11-.56-.25-1.39-.41-2.48a91.7,91.7,0,0,1-.82-9.61,113,113,0,0,1,4.44-35.09,112.62,112.62,0,0,1,16.62-34.19,94.39,94.39,0,0,1,9.23-11.17,97.55,97.55,0,0,1,24.81-18.59,111.39,111.39,0,0,1,31.47-10.91,82.65,82.65,0,0,1,9.54-1.24l.57,0-.35.46L91.67,293.6l94.5-124,.21.42a80.13,80.13,0,0,0-9.47,1.23,111.05,111.05,0,0,0-31.32,10.85,97.45,97.45,0,0,0-24.71,18.47,95.47,95.47,0,0,0-9.2,11.1,115,115,0,0,0-7.26,11.51A112.12,112.12,0,0,0,95,245.69a113.78,113.78,0,0,0-4.58,35,95.06,95.06,0,0,0,.72,9.61c.14,1.09.26,1.92.36,2.48l.1.63Z" style="fill:#263238"></path><path d="M172.18,172c.11.09-18.13,23.48-40.73,52.24s-41,52-41.15,51.91,18.12-23.47,40.74-52.24S172.07,171.87,172.18,172Z" style="fill:#263238"></path><path d="M149.68,179.75c.11.09-12.21,15.67-27.53,34.8S94.33,249.11,94.22,249s12.21-15.67,27.53-34.8S149.57,179.66,149.68,179.75Z" style="fill:#263238"></path><path d="M85.51,273.72a2.38,2.38,0,1,1-2.38-2.38A2.38,2.38,0,0,1,85.51,273.72Z" style="fill:#e0e0e0"></path><path d="M85.51,273.72s-.06-.22-.17-.56a2.48,2.48,0,0,0-.88-1.19,2.24,2.24,0,0,0-2.06-.26,2.14,2.14,0,0,0,0,4,2.21,2.21,0,0,0,2.06-.26,2.44,2.44,0,0,0,.88-1.19c.11-.34.13-.55.17-.55s.08.21,0,.6a2.35,2.35,0,0,1-.85,1.43,2.51,2.51,0,0,1-2.44.42,2.6,2.6,0,0,1,0-4.91,2.54,2.54,0,0,1,2.44.42,2.37,2.37,0,0,1,.85,1.43C85.59,273.5,85.54,273.72,85.51,273.72Z" style="fill:#263238"></path><path d="M89.89,240.79a2.38,2.38,0,1,1-2.38-2.38A2.37,2.37,0,0,1,89.89,240.79Z" style="fill:#e0e0e0"></path><path d="M89.89,240.79s-.06-.21-.17-.55a2.44,2.44,0,0,0-.88-1.19,2.21,2.21,0,0,0-2.06-.27,2.15,2.15,0,0,0,0,4,2.24,2.24,0,0,0,2.06-.26,2.48,2.48,0,0,0,.88-1.19c.11-.35.13-.56.17-.56s.08.22,0,.61a2.37,2.37,0,0,1-.85,1.43,2.54,2.54,0,0,1-2.44.42,2.6,2.6,0,0,1,0-4.92,2.54,2.54,0,0,1,2.44.43,2.32,2.32,0,0,1,.85,1.43C90,240.58,89.92,240.79,89.89,240.79Z" style="fill:#263238"></path><path d="M102.35,213.35a2.38,2.38,0,1,1,.17-3.35A2.38,2.38,0,0,1,102.35,213.35Z" style="fill:#e0e0e0"></path><path d="M102.35,213.36s.12-.19.29-.51a2.36,2.36,0,0,0,.3-1.44,2.2,2.2,0,0,0-1.18-1.71,2.14,2.14,0,0,0-3,2.69,2.2,2.2,0,0,0,1.57,1.35,2.4,2.4,0,0,0,1.47-.14c.33-.15.5-.28.53-.24s-.1.2-.44.42a2.36,2.36,0,0,1-1.63.32,2.55,2.55,0,0,1-2-1.53,2.61,2.61,0,0,1,3.66-3.29,2.57,2.57,0,0,1,1.32,2.1,2.36,2.36,0,0,1-.5,1.59C102.56,213.28,102.36,213.38,102.35,213.36Z" style="fill:#263238"></path><path d="M126.35,188.85a2.38,2.38,0,1,1,.18-3.35A2.38,2.38,0,0,1,126.35,188.85Z" style="fill:#e0e0e0"></path><path d="M126.35,188.85s.12-.18.3-.5a2.3,2.3,0,0,0,.29-1.44,2.21,2.21,0,0,0-1.17-1.71,2.15,2.15,0,0,0-3,2.69,2.22,2.22,0,0,0,1.57,1.35,2.38,2.38,0,0,0,1.47-.14c.34-.15.5-.28.53-.25s-.1.21-.43.43a2.39,2.39,0,0,1-1.63.32,2.54,2.54,0,0,1-2-1.53,2.6,2.6,0,0,1,3.65-3.29,2.54,2.54,0,0,1,1.32,2.1,2.39,2.39,0,0,1-.49,1.59C126.57,188.77,126.37,188.88,126.35,188.85Z" style="fill:#263238"></path><path d="M151.27,173.73a2.38,2.38,0,1,1,.18-3.36A2.38,2.38,0,0,1,151.27,173.73Z" style="fill:#e0e0e0"></path><path d="M151.27,173.73s.12-.19.3-.5a2.38,2.38,0,0,0,.29-1.45,2.2,2.2,0,0,0-1.18-1.7,2.14,2.14,0,0,0-3,2.68,2.2,2.2,0,0,0,1.57,1.35,2.39,2.39,0,0,0,1.47-.14c.33-.14.5-.27.53-.24s-.1.2-.43.42a2.4,2.4,0,0,1-1.64.33,2.54,2.54,0,0,1-1.94-1.54,2.6,2.6,0,0,1,3.65-3.29,2.54,2.54,0,0,1,1.32,2.1,2.4,2.4,0,0,1-.49,1.59C151.49,173.65,151.29,173.75,151.27,173.73Z" style="fill:#263238"></path><path d="M179.05,165.32a2.38,2.38,0,1,1,.18-3.36A2.38,2.38,0,0,1,179.05,165.32Z" style="fill:#e0e0e0"></path><path d="M179.05,165.32s.12-.19.3-.5a2.41,2.41,0,0,0,.3-1.45,2.25,2.25,0,0,0-1.18-1.71,2.15,2.15,0,0,0-3,2.69,2.2,2.2,0,0,0,1.57,1.35,2.38,2.38,0,0,0,1.47-.14c.34-.15.5-.28.53-.24s-.1.2-.43.42a2.39,2.39,0,0,1-1.63.32,2.52,2.52,0,0,1-2-1.53,2.6,2.6,0,0,1,3.65-3.29,2.54,2.54,0,0,1,1.32,2.1,2.37,2.37,0,0,1-.49,1.59C179.27,165.24,179.07,165.34,179.05,165.32Z" style="fill:#263238"></path><path d="M188,181.52a2.38,2.38,0,1,1,.18-3.36A2.38,2.38,0,0,1,188,181.52Z" style="fill:#e0e0e0"></path><path d="M188,181.52s.12-.18.3-.5a2.38,2.38,0,0,0,.3-1.45,2.25,2.25,0,0,0-1.18-1.7,2.15,2.15,0,0,0-3,2.69,2.22,2.22,0,0,0,1.57,1.35,2.3,2.3,0,0,0,1.47-.15c.34-.14.5-.27.53-.24s-.1.21-.43.42a2.39,2.39,0,0,1-1.63.33,2.54,2.54,0,0,1-2-1.53,2.62,2.62,0,0,1,.66-3,2.59,2.59,0,0,1,3-.34,2.52,2.52,0,0,1,1.32,2.09,2.35,2.35,0,0,1-.49,1.59C188.18,181.44,188,181.54,188,181.52Z" style="fill:#263238"></path><path d="M173.12,202a2.38,2.38,0,1,1,.18-3.36A2.38,2.38,0,0,1,173.12,202Z" style="fill:#e0e0e0"></path><path d="M173.12,202s.12-.18.3-.5a2.38,2.38,0,0,0,.29-1.45,2.2,2.2,0,0,0-1.18-1.7,2.14,2.14,0,0,0-3,2.69,2.22,2.22,0,0,0,1.57,1.35,2.31,2.31,0,0,0,1.47-.15c.33-.14.5-.27.53-.24s-.1.21-.43.42a2.4,2.4,0,0,1-1.64.33,2.55,2.55,0,0,1-1.94-1.53,2.6,2.6,0,0,1,3.65-3.29,2.53,2.53,0,0,1,1.32,2.09,2.4,2.4,0,0,1-.49,1.59C173.34,201.88,173.14,202,173.12,202Z" style="fill:#263238"></path><path d="M155.1,225.46a2.38,2.38,0,1,1,.18-3.35A2.38,2.38,0,0,1,155.1,225.46Z" style="fill:#e0e0e0"></path><path d="M155.1,225.46s.12-.18.3-.5a2.37,2.37,0,0,0,.29-1.44,2.2,2.2,0,0,0-1.18-1.71,2.14,2.14,0,0,0-3,2.69,2.22,2.22,0,0,0,1.57,1.35,2.39,2.39,0,0,0,1.47-.14c.33-.15.5-.28.53-.25s-.1.21-.43.43a2.41,2.41,0,0,1-1.64.32,2.55,2.55,0,0,1-1.94-1.53,2.6,2.6,0,0,1,.65-2.94,2.63,2.63,0,0,1,3-.35,2.54,2.54,0,0,1,1.32,2.1,2.44,2.44,0,0,1-.49,1.59C155.32,225.38,155.12,225.49,155.1,225.46Z" style="fill:#263238"></path><path d="M132.09,256.87a2.38,2.38,0,1,1,.18-3.36A2.38,2.38,0,0,1,132.09,256.87Z" style="fill:#e0e0e0"></path><path d="M132.09,256.87s.12-.19.3-.5a2.38,2.38,0,0,0,.29-1.45,2.21,2.21,0,0,0-1.17-1.7,2.14,2.14,0,0,0-3,2.68,2.2,2.2,0,0,0,1.57,1.35,2.38,2.38,0,0,0,1.47-.14c.34-.14.5-.27.53-.24s-.1.2-.43.42a2.4,2.4,0,0,1-1.64.33,2.54,2.54,0,0,1-1.94-1.54,2.6,2.6,0,0,1,3.65-3.29,2.54,2.54,0,0,1,1.32,2.1,2.35,2.35,0,0,1-.49,1.59C132.31,256.79,132.11,256.89,132.09,256.87Z" style="fill:#263238"></path><path d="M109.72,285a2.38,2.38,0,1,1,.18-3.36A2.36,2.36,0,0,1,109.72,285Z" style="fill:#e0e0e0"></path><path d="M109.72,285s.12-.19.3-.5a2.38,2.38,0,0,0,.3-1.45,2.2,2.2,0,0,0-1.18-1.7,2.15,2.15,0,0,0-3,2.68,2.21,2.21,0,0,0,1.58,1.35,2.4,2.4,0,0,0,1.47-.14c.33-.14.5-.27.52-.24s-.1.2-.43.42a2.36,2.36,0,0,1-1.63.33,2.54,2.54,0,0,1-2-1.54,2.6,2.6,0,0,1,3.65-3.29,2.54,2.54,0,0,1,1.32,2.1,2.35,2.35,0,0,1-.49,1.59C109.94,284.87,109.74,285,109.72,285Z" style="fill:#263238"></path><path d="M136.54,199.23c.11.09-4.23,5.87-9.69,12.91s-10,12.69-10.1,12.6,4.22-5.87,9.69-12.92S136.42,199.15,136.54,199.23Z" style="fill:#fff"></path><path d="M143.23,191a9.68,9.68,0,0,1-1.73,2.62,9.53,9.53,0,0,1-2.14,2.29,18.7,18.7,0,0,1,3.87-4.91Z" style="fill:#fff"></path><path d="M170.72,176.67c.11.09-4.47,5.94-10.23,13.07S150,202.57,149.86,202.48s4.47-5.94,10.23-13.07S170.6,176.58,170.72,176.67Z" style="fill:#fff"></path><path d="M148.35,222.41c.11.09-5.66,7.48-12.88,16.51s-13.18,16.27-13.29,16.18,5.65-7.48,12.88-16.51S148.24,222.32,148.35,222.41Z" style="fill:#fff"></path><path d="M114.22,204.62a7.18,7.18,0,0,1-.9,1c-.61.65-1.47,1.62-2.5,2.83a73.94,73.94,0,0,0-12.75,21.21c-.58,1.48-1,2.69-1.32,3.53a8,8,0,0,1-.51,1.29,7.42,7.42,0,0,1,.32-1.35c.23-.86.62-2.1,1.16-3.6a65.59,65.59,0,0,1,12.82-21.33c1.07-1.18,2-2.11,2.63-2.72A7.63,7.63,0,0,1,114.22,204.62Z" style="fill:#fff"></path><polygon points="227.69 235.68 219.25 249.72 221.48 261.92 234.3 271.73 242.78 257.9 240.43 245.07 227.69 235.68" style="fill:#1890FF"></polygon><polygon points="229.09 243.45 224.6 250.28 226.25 259.25 232.89 264.06 237.7 257.1 236.05 248.13 229.09 243.45" style="fill:#fff;opacity:0.30000000000000004"></polygon><polygon points="229.1 243.49 227.69 235.68 240.43 245.07 236.05 248.13 229.1 243.49" style="opacity:0.2"></polygon><polygon points="232.89 264.06 234.3 271.73 221.48 261.92 226.25 259.25 232.89 264.06" style="opacity:0.2"></polygon><polygon points="242.78 257.9 237.7 257.1 232.89 264.06 234.3 271.73 242.78 257.9" style="opacity:0.2"></polygon><polygon points="225.58 255.61 234.24 246.9 236.05 248.13 236.38 249.89 227.07 259.85 226.25 259.25 225.58 255.61" style="fill:#fff"></polygon><path d="M232.89,264.06a29.49,29.49,0,0,1,1.41,7.67,29.49,29.49,0,0,1-1.41-7.67Z" style="fill:#263238"></path><path d="M226.3,259.19a7.62,7.62,0,0,1-2.31,1.57,7.71,7.71,0,0,1-2.57,1.12,7.46,7.46,0,0,1,2.31-1.57A8,8,0,0,1,226.3,259.19Z" style="fill:#263238"></path><path d="M219.25,249.72a14,14,0,0,1,5.35.56,6.84,6.84,0,0,1-2.7,0A7.09,7.09,0,0,1,219.25,249.72Z" style="fill:#263238"></path><path d="M227.69,235.68a15.54,15.54,0,0,1,1,3.86,15.39,15.39,0,0,1,.45,4,15.54,15.54,0,0,1-1-3.86A15.39,15.39,0,0,1,227.69,235.68Z" style="fill:#263238"></path><path d="M229.09,243.45a2.6,2.6,0,0,1,.47.27l1.4.88,5.2,3.37.07,0v.08c.48,2.55,1.06,5.6,1.7,9l0,.1-.06.08L233.24,264l-.13.2-.16.22-.21-.16-6.64-4.83-.08-.05,0-.1c-.59-3.37-1.13-6.41-1.58-9l0-.08,0-.06,3.4-5,.92-1.32a3.47,3.47,0,0,1,.33-.42,4.61,4.61,0,0,1-.3.53l-.86,1.4-3.17,5,0-.14c.48,2.55,1.06,5.59,1.7,8.95l-.1-.15,6.65,4.8-.36.06.13-.19,4.68-6.76,0,.18c-.59-3.37-1.13-6.42-1.59-9l.09.13-5-3.48-1.38-1A3.35,3.35,0,0,1,229.09,243.45Z" style="fill:#263238"></path><path d="M240.4,245.05c.08.12-.85.91-2.07,1.77a7.39,7.39,0,0,1-2.37,1.35c-.08-.12.84-.91,2.07-1.77A7,7,0,0,1,240.4,245.05Z" style="fill:#263238"></path><path d="M242.78,257.9a8.08,8.08,0,0,1-2.6-.12,5.46,5.46,0,0,1-2.52-.64,8.37,8.37,0,0,1,2.59.12A5.89,5.89,0,0,1,242.78,257.9Z" style="fill:#263238"></path><path d="M221.75,260.7a25.67,25.67,0,0,1-1.2-5.07,26.1,26.1,0,0,1-.68-5.17,26.11,26.11,0,0,1,1.19,5.07A26.61,26.61,0,0,1,221.75,260.7Z" style="fill:#fff"></path><path d="M226.66,238.36A47.27,47.27,0,0,1,220.14,249a50.31,50.31,0,0,1,3.17-5.35A52.64,52.64,0,0,1,226.66,238.36Z" style="fill:#fff"></path><polygon points="197.32 207.06 184.61 215.55 181.63 226.73 188.53 240.12 201.2 231.83 204.33 220.07 197.32 207.06" style="fill:#1890FF"></polygon><polygon points="195.41 214.18 188.9 218.16 186.72 226.37 190.4 233.09 197.23 229.13 199.42 220.9 195.41 214.18" style="fill:#fff;opacity:0.30000000000000004"></polygon><polygon points="195.4 214.21 197.32 207.06 204.33 220.07 199.42 220.9 195.4 214.21" style="opacity:0.2"></polygon><polygon points="190.4 233.09 188.53 240.12 181.63 226.73 186.72 226.37 190.4 233.09" style="opacity:0.2"></polygon><polygon points="201.2 231.83 197.23 229.13 190.4 233.09 188.53 240.12 201.2 231.83" style="opacity:0.2"></polygon><polygon points="187.6 223.04 198.38 219.14 199.42 220.9 198.99 222.51 187.17 227.21 186.72 226.37 187.6 223.04" style="fill:#fff"></polygon><path d="M190.4,233.09a12.61,12.61,0,0,1-.68,3.58,13,13,0,0,1-1.19,3.45,26.22,26.22,0,0,1,1.87-7Z" style="fill:#263238"></path><path d="M186.78,226.35a13.11,13.11,0,0,1-5.19.32,6.85,6.85,0,0,1,2.58-.42A6.74,6.74,0,0,1,186.78,226.35Z" style="fill:#263238"></path><path d="M184.61,215.55a12.14,12.14,0,0,1,4.29,2.61,6.32,6.32,0,0,1-2.28-1.08C185.43,216.36,184.53,215.67,184.61,215.55Z" style="fill:#263238"></path><path d="M197.32,207.07a25.51,25.51,0,0,1-1.92,7.14,13.93,13.93,0,0,1,.71-3.64A13.7,13.7,0,0,1,197.32,207.07Z" style="fill:#263238"></path><path d="M195.41,214.18a3.15,3.15,0,0,1,.29.42c.23.34.5.77.83,1.29l3.06,4.91,0,.07,0,.08-2.14,8.24,0,.1-.09.05-6.63,3.86-.2.11-.23.14-.12-.24-3.68-6.72-.05-.08,0-.1,2.24-8.2,0-.08.06,0,4.86-2.86,1.31-.74a1.9,1.9,0,0,1,.44-.22,5.08,5.08,0,0,1-.46.33l-1.29.84-4.66,3,.08-.11L187,226.44l0-.18,3.7,6.7-.36-.1.2-.11,6.64-3.84-.12.15,2.25-8.21,0,.15-2.82-4.92-.77-1.38A2.51,2.51,0,0,1,195.41,214.18Z" style="fill:#263238"></path><path d="M204.31,220a12.51,12.51,0,0,1-5,.87,6.36,6.36,0,0,1,2.44-.69A6.45,6.45,0,0,1,204.31,220Z" style="fill:#263238"></path><path d="M201.2,231.83a7,7,0,0,1-2.15-1.12c-1.14-.71-2-1.44-1.87-1.56a7,7,0,0,1,2.15,1.12C200.47,231,201.29,231.71,201.2,231.83Z" style="fill:#263238"></path><path d="M182.34,225.81a22.83,22.83,0,0,1,1-4.76,23.57,23.57,0,0,1,1.49-4.63,22.39,22.39,0,0,1-1,4.76A23.18,23.18,0,0,1,182.34,225.81Z" style="fill:#fff"></path><path d="M195.39,208.91a24.92,24.92,0,0,1-4.64,3.51,25.15,25.15,0,0,1-5.09,2.83,47.42,47.42,0,0,1,4.8-3.26A46.86,46.86,0,0,1,195.39,208.91Z" style="fill:#fff"></path></g><g id="freepik--Character--inject-23"><path d="M410.72,441.24,438,433.59s16.93,25.14,22.11,24.22l-12.94-53.4-43,10.18Z" style="fill:#1890FF"></path><g style="opacity:0.6000000000000001"><path d="M431.67,417.64a2.25,2.25,0,0,1,2.13-2.11,2.15,2.15,0,0,1,2.11,2.08,2.39,2.39,0,0,1-2.26,2.23,2.24,2.24,0,0,1-2-2.42" style="fill:#fff"></path></g><g style="opacity:0.6000000000000001"><path d="M447.16,404.41l-4.29,1.2,14,50.74s1.61,2.13,3.22,1.46Z" style="fill:#fff"></path></g><path d="M437.93,434.52c.26-.07.06-1.4.59-2.89s1.45-2.44,1.29-2.65-1.57.54-2.18,2.35S437.7,434.63,437.93,434.52Z" style="fill:#263238"></path><path d="M441.6,439.56c.27,0,.44-1.24,1.33-2.39s2-1.69,1.91-1.95-1.59-.07-2.66,1.39S441.35,439.61,441.6,439.56Z" style="fill:#263238"></path><path d="M449.07,441.11c0-.25-1.39-.29-2.65.72s-1.54,2.38-1.3,2.43.83-.88,1.88-1.7S449.11,441.38,449.07,441.11Z" style="fill:#263238"></path><path d="M431.52,435.57c.21-.16-.44-1.27-.7-2.77s-.07-2.76-.32-2.84-.92,1.25-.59,3S431.35,435.75,431.52,435.57Z" style="fill:#263238"></path><g style="opacity:0.30000000000000004"><polygon points="416.12 439.72 420.98 438.36 414.38 412.18 408.71 413.5 416.12 439.72"></polygon></g><path d="M426,437a5.12,5.12,0,0,0-.66-2.67,11.94,11.94,0,0,0-1.54-2.59,12.17,12.17,0,0,0-1.19-1.34,3.22,3.22,0,0,0-.82-.66,1.18,1.18,0,0,0-1.42.22,1.5,1.5,0,0,0-.32,1.29,3.77,3.77,0,0,0,.39,1,9.19,9.19,0,0,0,1,1.52,9.57,9.57,0,0,0,2.22,2.07c1.44,1,2.52,1.15,2.55,1.05s-.91-.54-2.16-1.57a11.4,11.4,0,0,1-1.92-2.06,10.46,10.46,0,0,1-.85-1.42c-.28-.53-.4-1-.19-1.22s.12-.09.32,0a2.56,2.56,0,0,1,.6.48,14.4,14.4,0,0,1,1.15,1.22,14.85,14.85,0,0,1,1.62,2.34A17.86,17.86,0,0,0,426,437Z" style="fill:#263238"></path><path d="M426.28,436.59c0-.11-1-.4-2.75-.08a8.8,8.8,0,0,0-4.3,2.15,2.27,2.27,0,0,0-.94,2,1.31,1.31,0,0,0,1,.94,4.19,4.19,0,0,0,1.05,0,6.16,6.16,0,0,0,1.8-.43,6.39,6.39,0,0,0,2.48-1.81c1.14-1.38,1.18-2.55,1.09-2.55s-.44,1-1.57,2.1a6.31,6.31,0,0,1-2.31,1.45,5.28,5.28,0,0,1-1.56.33c-.58.05-1.09-.05-1.09-.27s.25-.82.65-1.15a9.3,9.3,0,0,1,1.29-1,10.22,10.22,0,0,1,2.54-1.16C425.23,436.7,426.28,436.74,426.28,436.59Z" style="fill:#263238"></path><path d="M336.26,333.79s-50.93-9.37-67.37.77v57.27c18.19,9.8,43.85,26.28,43.85,26.28l25.19-39.53Z" style="fill:#263238"></path><path d="M336.26,333.79l1.68,44.79s-28.68,41.26-33.53,48.92c-2.69,4.23-11.09,21.05-6,30.33s24,11.57,31.53,11.27,89.62-23.3,89.62-23.3l-8.64-35-37.35,7.3s29.89-22.36,33.66-29.75c3.33-6.54,6.83-26.18,6.95-26.61Z" style="fill:#263238"></path><path d="M327.93,391.53s-.49-.76-1.49-2a26.63,26.63,0,0,0-4.93-4.76,37.15,37.15,0,0,0-8.93-4.84,92.26,92.26,0,0,0-12-3.51c-4.34-1-8.43-2.11-12.22-2.8s-7.21-1.29-10.09-1.73-5.23-.72-6.85-.9l-1.87-.19a2.94,2.94,0,0,1-.65-.09,4.18,4.18,0,0,1,.66,0c.43,0,1.06,0,1.88.09,1.63.11,4,.35,6.88.73s6.33.92,10.13,1.63,7.92,1.76,12.25,2.77a86.08,86.08,0,0,1,12.06,3.56,36.52,36.52,0,0,1,9,5,24.75,24.75,0,0,1,4.87,4.93c.47.67.82,1.2,1,1.58A2.79,2.79,0,0,1,327.93,391.53Z" style="fill:#455a64"></path><path d="M412.34,370.68a4,4,0,0,1-.77-.05l-2.18-.24-7.9-1,.23-.17a44.17,44.17,0,0,1-5.6,16.19,49.76,49.76,0,0,1-3.17,4.72,46.16,46.16,0,0,1-3.47,4,27.6,27.6,0,0,0-3.24,3.43,11.9,11.9,0,0,0-1.66,3.71,12.47,12.47,0,0,0-.38,3.35c0,1-.06,1.89-.12,2.59s-.14,1.26-.2,1.63a2.92,2.92,0,0,1-.12.56,2.47,2.47,0,0,1,0-.57c0-.43.07-1,.11-1.63s.05-1.57,0-2.58a13,13,0,0,1,.32-3.44,11.73,11.73,0,0,1,1.67-3.86,11,11,0,0,1,1.51-1.8c.57-.57,1.16-1.12,1.74-1.73a48.91,48.91,0,0,0,3.41-4,54.34,54.34,0,0,0,3.12-4.68,45.22,45.22,0,0,0,5.64-16l0-.2.2,0,7.88,1.15,2.16.35A3.8,3.8,0,0,1,412.34,370.68Z" style="fill:#455a64"></path><path d="M381.93,411.58a2.2,2.2,0,0,1-.46.38l-1.39,1c-1.21.87-3,2.09-5.2,3.57L357.47,428c-3.42,2.23-6.86,4-9.86,5.86a38,38,0,0,0-7.41,5.59,16.59,16.59,0,0,0-3.52,5.13c-.58,1.36-.77,2.17-.83,2.15a2.87,2.87,0,0,1,.12-.59,11,11,0,0,1,.52-1.64,15.94,15.94,0,0,1,3.45-5.3,36.18,36.18,0,0,1,7.42-5.75c3-1.87,6.44-3.67,9.83-5.88,6.77-4.51,13-8.43,17.48-11.31l5.3-3.44,1.44-.93A3,3,0,0,1,381.93,411.58Z" style="fill:#455a64"></path><path d="M337.94,377.15a2.41,2.41,0,0,1-.28.54c-.24.39-.54.88-.9,1.49l-3.38,5.43-11.32,17.81-11.4,17.76-3.48,5.37-.95,1.46a2.36,2.36,0,0,1-.36.49,3.24,3.24,0,0,1,.27-.55c.19-.35.48-.86.87-1.51.77-1.3,1.91-3.16,3.34-5.45,2.85-4.59,6.84-10.9,11.27-17.85s8.49-13.21,11.45-17.73c1.45-2.21,2.65-4,3.52-5.34l1-1.44A2.68,2.68,0,0,1,337.94,377.15Z" style="fill:#455a64"></path><path d="M337.36,336.92s.11.07.29.24a8.3,8.3,0,0,1,.75.81,12.43,12.43,0,0,1,2,3.52,12.86,12.86,0,0,1,.69,6c-.27,2.28-1.3,4.57-1.87,7.06a39.65,39.65,0,0,0-.33,13.09c.19,1.6.35,2.94.47,4a7.25,7.25,0,0,1,.13,1.47,7.91,7.91,0,0,1-.33-1.44c-.17-.93-.41-2.29-.64-4a37.33,37.33,0,0,1,.19-13.25c.59-2.55,1.62-4.82,1.9-7a12.78,12.78,0,0,0-.56-5.77A15.52,15.52,0,0,0,337.36,336.92Z" style="fill:#455a64"></path><path d="M214.71,184.34s32,59.66,39,61.93,75.54,6.34,75.54,6.34l4.32-37.22-67.69,4.33-39-44.37Z" style="fill:#b78876"></path><path d="M332.29,212.42l-4.16,1.25L325,251.39l6.5,45.3L330,348.74s68.1,22.69,79.54,18.26c8-3.1,6.56-15.9,6.56-15.9l-12.65-86-2-15.24a73.52,73.52,0,0,0-13.73-34.27c-4.41-6-9.49-11.54-14.18-13.63l-8.95-2.62Z" style="fill:#455a64"></path><polygon points="328.13 213.67 296.5 216.59 296.5 252.62 326.55 255.73 328.13 213.67" style="fill:#455a64"></polygon><path d="M331.61,297.62c-.14,0-2.43-17.35-5.12-38.77S321.75,220,321.89,220s2.43,17.34,5.12,38.77S331.75,297.6,331.61,297.62Z" style="fill:#263238"></path><path d="M295.47,248.28h-.28l-.8-.05-3.07-.25c-2.68-.22-6.54-.58-11.31-1s-10.45-1-16.74-1.81c-1.58-.19-3.19-.41-4.83-.64-.82-.14-1.65-.24-2.49-.4-.42-.1-.84-.15-1.27-.27l-.67-.21a2.32,2.32,0,0,1-.54-.49c-1.13-1.35-2.09-2.81-3.11-4.27l-3-4.51c-8-12.25-15-23.5-20-31.64L221.36,193l-1.59-2.65-.4-.69c-.09-.16-.13-.24-.12-.25a1.57,1.57,0,0,1,.17.22l.44.67,1.67,2.59,6.08,9.59c5.14,8.09,12.17,19.32,20.17,31.55l3,4.5c1,1.46,2,2.94,3.06,4.23a1.6,1.6,0,0,0,.41.38l.56.17c.38.11.82.17,1.22.26.82.17,1.66.27,2.47.41,1.64.23,3.25.46,4.82.65,6.28.8,12,1.4,16.72,1.93l11.29,1.21,3.06.35.8.1A.84.84,0,0,1,295.47,248.28Z" style="fill:#fff"></path><path d="M325,253.71c0,.14-6.18-.2-13.79-.77s-13.76-1.15-13.75-1.29,6.18.2,13.79.77S325,253.56,325,253.71Z" style="fill:#fff"></path><path d="M332.75,314a1.77,1.77,0,0,1,0-.55c0-.41.07-.93.12-1.59.12-1.44.31-3.45.53-6v0c0-3.23-.16-7.36-.54-12.08s-1-10-1.72-15.62c-1.34-9.83-2.8-18.71-3.68-25.16-.45-3.22-.78-5.83-1-7.64-.09-.87-.17-1.56-.22-2.09a3.1,3.1,0,0,1,0-.73,6.54,6.54,0,0,1,.14.72c.08.53.19,1.21.32,2.07.28,1.86.67,4.45,1.15,7.62,1,6.43,2.48,15.3,3.83,25.14.76,5.6,1.34,10.92,1.67,15.65s.42,8.88.4,12.12h0c-.29,2.5-.52,4.5-.69,5.94-.08.65-.15,1.17-.2,1.58A4.63,4.63,0,0,1,332.75,314Z" style="fill:#fff"></path><path d="M351.85,140.66a12.45,12.45,0,0,0-1.63-10,27.33,27.33,0,0,0-10.42-8.21c-.35-.12,1,.49,0,0-.42-.2-1.39-1.86-1.72-2.21-1.69-1.78-2.63-2.14-3.42-2.15a15.72,15.72,0,0,0-3.36.17c-1.5.22-3.63,2-4.6,3.15a5.89,5.89,0,0,0-5.13-2.61,7.23,7.23,0,0,0-5.21,2.67,1,1,0,0,1-.5.39.92.92,0,0,1-.67-.25,5.13,5.13,0,0,0-5.28-.37,3.85,3.85,0,0,0-1.68,4.78,4.44,4.44,0,0,0-5.56,6.14c-1.34.12-2.86.33-3.64,1.43a5.45,5.45,0,0,0-.23,5,8.55,8.55,0,0,0,3.16,3.3c1.49.67,2.29-.28,3.92-.41,2.43-.19,5-.44,7-1.83" style="fill:#263238"></path><path d="M302.37,157.43A26.81,26.81,0,0,1,320.68,126l1.32-.41c14.57-3.55,25.73,6.83,28.88,21.48l14.34,54.54-31.33,16.28-4.53-15.58s-14.41,2.08-18.8-11.62C308.44,184.1,305.18,170.12,302.37,157.43Z" style="fill:#b78876"></path><path d="M329.24,202.34a34.88,34.88,0,0,0,16.4-10.81s-1.2,11.2-15.3,14.18Z" style="fill:#995037"></path><path d="M309,167.45a2.06,2.06,0,0,0,2.5,1.4,2,2,0,0,0,1.48-2.4,2.06,2.06,0,0,0-2.5-1.4A2,2,0,0,0,309,167.45Z" style="fill:#263238"></path><path d="M307.39,163.25c.33.18,1.48-1.38,3.59-2s4-.06,4.14-.39c.08-.15-.31-.54-1.14-.82a5.61,5.61,0,0,0-3.41,0,5.46,5.46,0,0,0-2.76,1.92C307.32,162.64,307.24,163.17,307.39,163.25Z" style="fill:#263238"></path><path d="M329,162a2.05,2.05,0,0,0,2.5,1.4,2,2,0,0,0,1.48-2.4,2.06,2.06,0,0,0-2.5-1.4A2,2,0,0,0,329,162Z" style="fill:#263238"></path><path d="M328.53,158c.32.18,1.47-1.38,3.59-2s4-.06,4.13-.39c.08-.15-.31-.54-1.14-.82a5.6,5.6,0,0,0-3.41,0,5.38,5.38,0,0,0-2.75,1.92C328.45,157.35,328.37,157.88,328.53,158Z" style="fill:#263238"></path><path d="M325.43,175.29a15.09,15.09,0,0,0-3.62.44c-.56.11-1.1.16-1.31-.18a3,3,0,0,1-.13-1.71c.11-1.46.22-3,.34-4.6.42-6.53.54-11.84.28-11.85s-.82,5.27-1.24,11.8c-.09,1.6-.17,3.14-.25,4.6a3.19,3.19,0,0,0,.37,2.2,1.42,1.42,0,0,0,1.13.52,4.11,4.11,0,0,0,.95-.15A14.65,14.65,0,0,0,325.43,175.29Z" style="fill:#263238"></path><path d="M325.12,150.19c.38.51,2.42-.38,5-.81s4.79-.35,5-1c.08-.29-.43-.73-1.41-1a8.44,8.44,0,0,0-3.95-.21,8.55,8.55,0,0,0-3.64,1.55C325.28,149.35,325,149.94,325.12,150.19Z" style="fill:#263238"></path><path d="M304.5,155.59c.56.4,2.29-.48,4.48-.94s4.13-.47,4.46-1.07c.14-.28-.25-.72-1.16-1a7.47,7.47,0,0,0-3.82-.08,7.31,7.31,0,0,0-3.39,1.7C304.4,154.83,304.24,155.39,304.5,155.59Z" style="fill:#263238"></path><path d="M351.93,157.91c.2-.17,8.59-5.69,11.18,3.8s-7.48,10.13-7.57,9.86S351.93,157.91,351.93,157.91Z" style="fill:#b78876"></path><path d="M356.63,167.44s.2.07.51.12a1.73,1.73,0,0,0,1.25-.31c.9-.64,1.31-2.46.89-4.19a5.68,5.68,0,0,0-1.11-2.24,2,2,0,0,0-1.59-.93.87.87,0,0,0-.85.72c-.06.3,0,.47,0,.5s-.25-.1-.28-.51a1.13,1.13,0,0,1,.21-.7,1.31,1.31,0,0,1,.85-.49,2.39,2.39,0,0,1,2.13,1,5.75,5.75,0,0,1,1.29,2.49c.46,1.93,0,4-1.29,4.76a1.88,1.88,0,0,1-1.58.16C356.71,167.66,356.6,167.47,356.63,167.44Z" style="fill:#995037"></path><path d="M337.23,131.83l-5.87-2.6L317.26,136l-11.2.5-5.93,2.84c1.64,1.21.05-.6,1.87-3.11a32,32,0,0,1,15.81-11.81c6.37-2.06,21.77,1.76,27.75,4.76,4.78,2.4,5.69,5.46,5.69,5.46,2.14,4.91,1.06,11.56,1.45,16.89.2,2.76,1.45,10.89,1.45,10.89h0c-2.17.66-3.49-.82-3.82-3.06l-2.15-8.5a13.26,13.26,0,0,1-8.38-13.61C340.13,136.32,340.26,132.46,337.23,131.83Z" style="fill:#263238"></path><path d="M339.84,133.48c-1.66-2.43-5.09-3.21-7.89-2.32a12.08,12.08,0,0,0-6.45,5.71,8.85,8.85,0,0,1-1.25,1.89,2.37,2.37,0,0,1-2.05.77c-.23-.05-.48-.14-.68,0a.72.72,0,0,0-.25.42,6.15,6.15,0,0,1-1.55,2.73,2.52,2.52,0,0,1-2.92.42,3.76,3.76,0,0,1-6.85-.82,3.55,3.55,0,0,1-3.82-.26,7.28,7.28,0,0,1-1.52-11.19,13.06,13.06,0,0,1,4.14-2.7,59.71,59.71,0,0,1,7.29-2.83,9.69,9.69,0,0,1,3.36-.61c1.58.09,3.13.89,4.69.61a7.48,7.48,0,0,0,2.72-1.32,11.8,11.8,0,0,1,4-1.87c2.83-.6,5.71.69,8.17,2.21a12,12,0,0,1,4.41,4.12,5.11,5.11,0,0,1-.26,5.72,2.54,2.54,0,0,1-2.1,1,1.5,1.5,0,0,1-1.36-1.64" style="fill:#263238"></path><path d="M332.05,179.84a3.18,3.18,0,0,0-2.37-1.88,3.94,3.94,0,0,0-3.26,1.93,3.72,3.72,0,0,0,.37,2.18,7.27,7.27,0,0,0,1.17,2.22,2.5,2.5,0,0,0,2.21,1,2.89,2.89,0,0,0,2.05-2.3A4.71,4.71,0,0,0,332.05,179.84Z" style="fill:#995037"></path><path d="M330.4,185.18c0-.22.59-.48,1-1.4a4.05,4.05,0,0,0-.22-3.58,2.91,2.91,0,0,0-1.5-1.17,2.41,2.41,0,0,0-1.55,0c-.93.28-1.33.89-1.54.8s-.13-.26,0-.62a2.52,2.52,0,0,1,1.05-1.18,3.26,3.26,0,0,1,2.4-.39,3.94,3.94,0,0,1,2.43,1.7,4.52,4.52,0,0,1-.14,5,2.34,2.34,0,0,1-1.29.94C330.63,185.37,330.41,185.28,330.4,185.18Z" style="fill:#263238"></path><path d="M333.48,212.45a25.77,25.77,0,0,1-1.64-7.09,13,13,0,0,1,1.07,3.49A12.73,12.73,0,0,1,333.48,212.45Z" style="fill:#fff"></path><path d="M334.62,197.52s-.08.09-.26.23a8.56,8.56,0,0,1-.84.56,14.25,14.25,0,0,1-3.43,1.46,15.76,15.76,0,0,1-5.5.58,15.59,15.59,0,0,1-6.49-1.91,13.21,13.21,0,0,1-4.76-4.82,22.09,22.09,0,0,1-2.18-5.08,28.72,28.72,0,0,1-.84-3.62,5.89,5.89,0,0,1-.14-1.35c.1,0,.37,1.9,1.33,4.86a23.74,23.74,0,0,0,2.24,4.94,13,13,0,0,0,4.6,4.61,15.53,15.53,0,0,0,6.28,1.89,16.11,16.11,0,0,0,5.37-.45A22.7,22.7,0,0,0,334.62,197.52Z" style="fill:#fff"></path><path d="M332.36,184.6c.13.06-.29,1-1.36,1.67a2.5,2.5,0,0,1-2.1.47c0-.15.9-.33,1.83-.91S332.24,184.52,332.36,184.6Z" style="fill:#fff"></path><path d="M311.07,169.55c0,.14-.41.36-1,.29s-1-.39-.9-.51.48-.06,1,0S311,169.41,311.07,169.55Z" style="fill:#fff"></path><path d="M312.84,154.68a10.36,10.36,0,0,1-3.77,1.46,10.62,10.62,0,0,1-4,.44,31.1,31.1,0,0,1,3.9-.94A31.37,31.37,0,0,1,312.84,154.68Z" style="fill:#fff"></path><path d="M331.48,164c0,.13-.4.44-1,.47s-1.12-.22-1.08-.35.5-.14,1.05-.17S331.42,163.84,331.48,164Z" style="fill:#fff"></path><path d="M335.27,150.4a25.57,25.57,0,0,1-9.48.85,34.23,34.23,0,0,1,4.74-.5A33.18,33.18,0,0,1,335.27,150.4Z" style="fill:#fff"></path><path d="M318,140.36s-.09.33-.47.79a4.84,4.84,0,0,1-2.08,1.42,4.75,4.75,0,0,1-3.73-.17,5.17,5.17,0,0,1-2.81-3.59l0-.2.41.17a6.28,6.28,0,0,1-4.39,1.06,5.87,5.87,0,0,1-3.31-1.59,5.69,5.69,0,0,1-1.4-2,2,2,0,0,1-.23-.87,8.24,8.24,0,0,0,1.87,2.63,5.78,5.78,0,0,0,3.13,1.39,6,6,0,0,0,4-1l.33-.23.08.4,0,.18a4.76,4.76,0,0,0,2.51,3.26,4.51,4.51,0,0,0,3.4.26,5.19,5.19,0,0,0,2-1.22C317.75,140.61,317.92,140.34,318,140.36Z" style="fill:#fff"></path><path d="M191.51,157s-1.68,1.82,1.58,3.13c3.06,1.23,12.13,6.19,12.13,6.19h0a12.52,12.52,0,0,0-.56,3.87,2.6,2.6,0,0,0,1.32,2.27s-.52,5.52,2.47,8.62,8.66,3.73,8.66,3.73l11.35-7.27s-12.68-17.16-13.67-18.16c-.63-.63-3.33-2.8-5.11-3.24s-12.79-3.41-12.79-3.41l-9.25,1.34s-.52,3.05,2.12,3.05C192.84,157.12,191.51,157,191.51,157Z" style="fill:#b78876"></path><path d="M212.86,174.71a11.39,11.39,0,0,1-1.44-2c-.84-1.27-2-3.05-3.17-5a5.1,5.1,0,0,0-1-1.26,1.85,1.85,0,0,0-1.21-.57,1,1,0,0,0-.29.07c-.05,0,0,0-.08,0l-.08.11a3.39,3.39,0,0,0-.29.57,8.59,8.59,0,0,0-.37,1.16,9.64,9.64,0,0,0-.3,1.73,2.21,2.21,0,0,0,0,.64s-.22-.19-.24-.63a7.61,7.61,0,0,1,.15-1.82,9.89,9.89,0,0,1,.33-1.23,3.13,3.13,0,0,1,.31-.68l.13-.17a.93.93,0,0,1,.22-.16,1.52,1.52,0,0,1,.43-.12,2.26,2.26,0,0,1,1.59.66,5.61,5.61,0,0,1,1.11,1.37c1.22,2,2.29,3.78,3,5.1A11.92,11.92,0,0,1,212.86,174.71Z" style="fill:#995037"></path><path d="M212.1,163.89a19,19,0,0,1-2.41-2.27,6.88,6.88,0,0,0-2.87-1.9,16.15,16.15,0,0,0-2-.46c-.73-.14-1.47-.32-2.23-.51a49.29,49.29,0,0,0-7.76-1.64c-2-.21-3.27,0-3.28-.11a3.11,3.11,0,0,1,.87-.19,14.65,14.65,0,0,1,2.44-.07,39.9,39.9,0,0,1,7.86,1.5c.75.19,1.49.38,2.2.52a15.19,15.19,0,0,1,2.09.51,7,7,0,0,1,3,2.09A23.88,23.88,0,0,1,212.1,163.89Z" style="fill:#995037"></path><path d="M290.24,327.08l64.51-7.52.42-52.35,31.48-1.15s-2,55.16-2.18,64.5c-.08,6.36-8.14,14.53-15.08,16.12-3.39.78-75.16-.62-75.16-.62Z" style="fill:#b78876"></path><path d="M383.24,216.66a13.51,13.51,0,0,0-17.19-1.27c-5.68,4-14.33,13.94-15.43,26.67-1.29,14.87,1.1,32.51,1.1,32.51l36.85-.16,7-27.76" style="fill:#455a64"></path><path d="M357.76,277.24a.89.89,0,0,1,0,.22l0,.65c0,.62,0,1.46.05,2.53,0,2.24,0,5.42.07,9.39,0,8,.06,19.17.09,31.88v.22l-.22,0c-3.37.5-6.87,1-10.46,1.47-15.13,2-28.89,3.27-38.86,4-5,.35-9,.56-11.82.7l-3.22.13-.84,0h-.28a.75.75,0,0,1,.28,0l.84-.08,3.21-.22,11.8-.87c10-.79,23.71-2.1,38.82-4.11,3.59-.47,7.09-1,10.46-1.47l-.22.26c0-12.71.07-23.86.09-31.88,0-4,.06-7.15.08-9.39,0-1.07,0-1.91,0-2.53l0-.65C357.74,277.31,357.75,277.24,357.76,277.24Z" style="fill:#fff"></path><path d="M363,221.58s-.46.53-1.29,1.47a32.7,32.7,0,0,0-3.17,4.27,43.55,43.55,0,0,0-5.81,16.44,94.41,94.41,0,0,0-.67,17.56c.09,2.2.17,4,.22,5.34l.05,1.46a2.09,2.09,0,0,1,0,.51,1.85,1.85,0,0,1-.09-.51c0-.39-.08-.87-.14-1.44-.11-1.26-.26-3.09-.39-5.34a85.32,85.32,0,0,1,.52-17.66,41.9,41.9,0,0,1,6-16.55,29.31,29.31,0,0,1,3.33-4.22c.43-.46.81-.78,1.05-1S363,221.56,363,221.58Z" style="fill:#fff"></path><path d="M274.5,309.18,287,319.69l7.62,10.38.94,15.65-15.13,2s-19.29-1.7-20.73-4.18.4-3.11.4-3.11-4.12-.69-7.37-1.44c-1.69-.39-3-3.93-1.34-4.09,4.61-.46,17.15-.09,17.49-.31s-16.53-5.62-18.39-6.72c-1.2-.7-1.56-3.22-.09-3.79s17.16,1.81,17.16,1.81l6.07-.47-7.26-4.16-10.2-3.7s-2.51-3.52,1-3.74,13.35,1.48,13.35,1.48l6,2.9S271.9,312.93,274.5,309.18Z" style="fill:#b78876"></path><path d="M285.52,323a32.16,32.16,0,0,1-4.66-2.26,21.64,21.64,0,0,1-4.42-2.72,32.74,32.74,0,0,1,4.66,2.26A22.16,22.16,0,0,1,285.52,323Z" style="fill:#995037"></path><path d="M275.43,341.7a59.38,59.38,0,0,1-7.88-.4,60.75,60.75,0,0,1-7.84-.93,60.59,60.59,0,0,1,7.88.41A61.92,61.92,0,0,1,275.43,341.7Z" style="fill:#995037"></path><path d="M351.89,261.33a4.65,4.65,0,0,1,.08.88l.12,2.55c.07,2.26.18,5.43.31,9.29l-.2-.2,22.23-.06,16.49,0-.22.2c.74-5.43,1.36-10,1.81-13.26.23-1.56.41-2.81.55-3.72.06-.4.12-.72.16-1a1.31,1.31,0,0,1,.08-.34,1.26,1.26,0,0,1,0,.34q0,.4-.09,1c-.1.93-.25,2.18-.42,3.75-.4,3.27-1,7.84-1.63,13.27l0,.2h-.21l-16.49,0-22.23-.06H352v-.19c-.06-3.87-.1-7-.14-9.3v-2.54A5,5,0,0,1,351.89,261.33Z" style="fill:#263238"></path><path d="M388.43,227.54a15.39,15.39,0,0,0-2-3.35,14.93,14.93,0,0,0-7.9-4.76,32.47,32.47,0,0,0-9.4-.58c-2.43.14-3.93.27-3.94.19a3.84,3.84,0,0,1,1-.21c.68-.1,1.66-.23,2.87-.35a29.27,29.27,0,0,1,9.56.45,14.58,14.58,0,0,1,8.06,5,9.4,9.4,0,0,1,1.42,2.55A3.1,3.1,0,0,1,388.43,227.54Z" style="fill:#263238"></path><path d="M364.63,372.68c0,.08-1.53,0-4,.07a66.13,66.13,0,0,0-9.55.91,67.35,67.35,0,0,0-9.32,2.3c-2.34.76-3.76,1.33-3.79,1.25a4.66,4.66,0,0,1,1-.5c.62-.29,1.55-.67,2.71-1.1a54.89,54.89,0,0,1,9.35-2.47,54.27,54.27,0,0,1,9.64-.76c1.24,0,2.24.07,2.93.14A4,4,0,0,1,364.63,372.68Z" style="fill:#455a64"></path></g></svg>